<svg id="图层_1" data-name="图层 1" xmlns="http://www.w3.org/2000/svg" viewBox="0 0 1837.19 660.33"><defs><style>.cls-3{fill:#207d93}</style></defs><text transform="rotate(13.53 -340.554 1072.906)" fill="#207d93" font-size="34.34" font-family="InkFree,Ink Free">The birds have flown away<tspan x="392.85" y="0" font-family="AdobeSongStd-Light-GBpc-EUC-H,Adobe Song Std" letter-spacing="0">！</tspan></text><path class="cls-3" d="M863.27 395.41c78.65-6.93 189.66-129.75 229.7-208.59l-1.57-1C1036 273.6 966.14 359.06 863.27 395.41zm52.34 153.65c2.09.35 4.11.42 12.17 1.07-10.69 0-12.86.09-13.26 1.14-3.09 3.42-8.12 8.92-10.78 9.76 1.33 3.53 10.75 4 20.62-5.52 14.73-14.18 25.55-32.75 20.06-60.15-.94-4.67-3.46-7.14-5.33-6.06-1.08.62 1.76 4 2.68 6.77 2.27 7 2.5 12.23 1.88 16.19-9 1.72-12.73 5.34-12.73 5.34s-5 17.06-8.87 19.4c2.68-.54 2.68-.54 6.83.24-9.28 1.26-7.55 2.05-13.27 11.82zM27.4 370.67c-2-2.45-1.87-3-4.61-2.76 2 20.66 135.88 142.23 185.22 121.83-58.4-5.44-105-43.39-148.08-82.65-12.33-11.27-21.84-23.67-32.53-36.42zM125.58 403c.11-.41.23-.82.35-1.23-36.42-13.47-64.09-40.33-94-65.53C19.29 325.44 4 308.39-4.95 294.31c-1.67-2.65-1.76-3.94-4.64-4.13-.52 19.34 98.64 109.48 135.17 112.82zm576.61 222.08c-2.45-2.09-3.15-3.81-5.5-6.17-1.93-.21-2.47.23-4.88.68a7.67 7.67 0 014.69-1.38c-1.76-3.44-1.67-5.25-3.67-8.1-2.26-3.17-7.66-5.4-14-6.87-1-4.42-.38-11.55.53-14.87.67-3.09-1.51-2.4-2.14 0-1.11 4.22-.67 9.11.13 15.27-1.34 3.49-4 10.86-1.06 15.81a27.21 27.21 0 012.92-5c-.57 1.91-1.58 2.67-2.16 5.6a36.66 36.66 0 008.4 10.31 17.37 17.37 0 01.63-6.18c-.06 4 .53 7 .87 7.29 5.18 3.54 11.48 5.1 19.24 3.4 7.01-1.54-2.9-8.87-4-9.79zm148.75 2.16c-6.57 11.15 82.66 22.37 120.45.12-3.07-8.48-41.01 23.46-120.45-.12zm67.52-219.72l-1-1c-30.22 21.4-64.66 30.57-101.11 38.53-3.88.86-7.1.46-8.54 3.39 9.71 5.46 91.64-19.01 110.65-40.92zm-896.84 7.63c-2-3-3.94-6.87-6.6-4.66 2.2 8.59 43.07 62.69 61.33 57.67-22.88-14.71-35.96-25.16-54.73-53.01zM1291.25 13.7h-3.07c1.03 1.98 1.95 2 3.07 0zm3.19 110.64c-.85-.81-1-.89-1.18-.9-1.56-.2-.48 3.06 1.18.9zM773.55 386.67c2-1.95 2.29-4.34 1.8-7.4-2.35-3.92-5.85-6.06-9.29-1.34-1.68 2.38 4.05 19-8.56 11.44-.81 2.4 5.76 15.75 18.38 3.88-2.31.5-4.69.43-5.73-1 2.77.94 5.15 0 7.84-2a15.73 15.73 0 00-1.11-7.7c-.62 2.04-1.7 3.85-3.33 4.12z" transform="translate(524.15 20.16)"/><path class="cls-3" d="M1037.11 16.45c-41.17 7.79-81.8 13.1-122.76 22.54Q769.78 72.32 626 105.65c-36.42 8.37-71.67 13.71-107.5 22-7.17 1.66-12.23 2.38-18.91 3.41-3.39.53-4.16 3-7.87 3.59-6.93 1.13-12.57 2-18.95 2.94s-8.38 2.38-14.12 3.54c-4.44.89-9.05 1.71-13.35 2.27s-5.5-.64-9.12.84a84.27 84.27 0 01-14.7 4.36c-7.57 1.55-14.81 2.91-22.31 4.34-20.91 3.83-13.84 1.23-40.26 10.21-5.15 1.73-9.83-5.71-13.89-4.87-7.05 1.48-9.57 5.71-12.14 6.34-5.26 1.34-10.44.84-42.46-1.18-14.1-.88-58.69-3.66-81.73-6.37-17.85-2.1-34.43-5.27-51.86-7.93-25.67-3.93-50.27-10.77-75.28-16.9-21.87-5.38-41.65-13.24-63.42-17.96-31.6-6.79-68.13-12.39-107.5-24.13-37.36-11.15-78.56-20.92-122.77-31.5-38.49-9.2-76.68-19.76-120.06-28.65-23.34-4.77-46.38-9.54-69.84-13-38.63-5.75-76.53-10-115.83-17.32-1.84-.34-4-.75-6.28-1.2v3.75c9.69 1.77 19.15 3.5 27.91 4.93 42.85 7 84.35 10.59 127.05 19.1 79.41 15.91 156 37.29 235.11 55.64 28.67 6.64 54.56 16.12 83 23 28 6.8 42.27 6.27 80.58 17 60.83 17.13 104.8 32.48 194.66 41.11 25.16 2.39 52.14 4.47 85.15 6.17 10.35.5 15.33-1 18 .86 5.23 3.8-8.06 13.58 3.38 15.37 4.89.71 3.37-9.43 5.48-12.9 2.36-3.83 8.25-6 11.67-2.21 1.18 1.3 3.06 4.1 3.07 6.65-.11 3.47-1.89 8.55-2.85 11.11-.74 1.9-2.32 2.57-3.93 3.51-3.31 2-10 12-11.75 16.26-.94 2.27-2.26 4.94-.35 7.44-52.26 40.22-76.58 71.33-76.34 97.52.29 30.86 13.73 227.75 13.86 229.74a13.63 13.63 0 01.3 3.06c44.05 27.55 97.24 31.56 170.06 17.25 72.44-14.24 110-53.42 126.88-80.91a34.81 34.81 0 00-.42-4.51l.51-.14v.1c47.43-1.75 71-13.5 97.76-34.57l1.44-1.13-.64-1.72c-1-2.69-2.75-7.76-4.94-14.17-7.67-22.47-21.95-64.28-34.7-89.64-16.51-32.85-46.3-38.28-62.3-33.92-13.78 3.76-27.67 18.1-31.53 42.33-12.18-40.18-24.44-75.91-34.75-94.72-19.83-36.18-103-38.91-143.48-40.17-.32-1-.46-2.09-.68-2.73a32.7 32.7 0 01-1.58-6.1c-.3-2.16 1.48-4.13 1.83-5.86 1-5.08.75-5.49 3.92-9.6 1.37-1.81 2-14.05 1.82-16.52 13.85-9.18 136.17-28.62 305.17-66.74C832.3 64.22 984.56 16.94 1313-15.55v-4.61c-92.33 9.7-184.66 19.37-275.89 36.61zm-663 279.79c-4.25-20.3-9.11-34.1-14.65-46.43a122.38 122.38 0 0013.92-5.49 212.12 212.12 0 0129.5 42.81 158.76 158.76 0 01-28.74 9.11zm29.25-8.24a195.46 195.46 0 0118.19 52.5c.89 4.65 1.84 9.64 2.85 14.88a166 166 0 01-16.27 4.38q-11.28 2.45-22.35 4.34c-1.9-11.45-3.68-22.1-5.25-31.5l-3.37-20.22c-.91-5.45-1.84-10.49-2.81-15.19a158.55 158.55 0 0029.01-9.19zm-44.29-39.1c-3-6.67-6.27-13-9.73-19.66-2-3.89-4.08-7.92-6.23-12.23 7 4.61 18 13.57 29.61 26.55a121.92 121.92 0 01-13.65 5.34zm14.09 47.55a194.92 194.92 0 01-24.44 3.55c-4.43.36-8.67.54-12.71.57a428.45 428.45 0 01.31-45.34c2.54-.35 5.07-.77 7.52-1.26a136.48 136.48 0 0014.69-3.82c5.54 12.28 10.39 26.04 14.63 46.3zM348.8 301a196.71 196.71 0 0024.57-3.55c1 4.68 1.9 9.7 2.8 15.14l3.38 20.21c1.57 9.41 3.34 20.06 5.25 31.51-14.7 2.5-29 4.26-42.32 5.22-2.13-17.25-3.85-32.53-4.85-44.09-.74-8.45-1.25-16.39-1.58-23.87 4-.05 8.23-.22 12.75-.57zm36.2 64.28c3.11 18.65 6.55 39.39 10 60.37a343.15 343.15 0 01-44.43 4.73c-2.87-20.75-5.63-41.42-7.92-59.88 13.15-.95 27.4-2.69 42.35-5.22zm1-.17a533.01 533.01 0 0022.39-4.35c5.75-1.25 11.16-2.72 16.25-4.37 3.46 18 7.52 38.91 11.65 60.18-14.48 3.89-27.9 6.79-40.29 8.91-3.5-20.98-6.95-41.72-10-60.37zm36.58-24.78a195.78 195.78 0 00-18.26-52.7 129.61 129.61 0 0027.25-16 68 68 0 014.85 8.57c8.65 18.46 15.46 43.8 19.42 60.54a134.82 134.82 0 01-30.43 14.34c-1.05-5.19-2-10.14-2.88-14.75zm-18.71-53.59a212.87 212.87 0 00-29.49-42.86 83.62 83.62 0 0015.72-9.59c17.22 10.26 31.83 23.11 40.91 36.5a128.57 128.57 0 01-27.19 15.95zm-30.16-43.63c-12.6-14.09-24.42-23.49-31.42-27.84l-.18-.36a165.8 165.8 0 0147.11 18.85 83.31 83.31 0 01-15.56 9.35zm-25.26-13.41c3.43 6.65 6.65 12.89 9.67 19.52a134.63 134.63 0 01-14.47 3.78q-3.72.74-7.26 1.23c1.25-18.74 3.64-31.21 5.25-37.89 2.36 4.73 4.62 9.12 6.81 13.36zm-13.07 24.63a82.72 82.72 0 01-19.82.43c7.44-14.3 16.24-26.42 22.43-34.92 1-1.32 1.84-2.54 2.66-3.69-1.65 6.76-4.03 19.33-5.27 38.18zm-12.56 1.86a100.43 100.43 0 0012.49-.85 429 429 0 00-.3 45.2 115.24 115.24 0 01-33.11-4.44c1.73-14.43 6.91-28.16 13.14-40.34a67.24 67.24 0 007.78.43zm12.05 45.38h.18c.33 7.5.84 15.47 1.58 23.95 1 11.55 2.72 26.83 4.85 44.07a291.33 291.33 0 01-31.4.64c-2.11-.08-4.14-.19-6.13-.32-1.9-28.39-2.94-51.81-2.66-65.41 0-2.45.22-4.89.48-7.31 8.09 2.43 18.97 4.38 33.1 4.38zm-15.36 69.83c6.93 0 14.33-.28 22.1-.83 2.29 18.45 5 39.1 7.91 59.85A242.41 242.41 0 01313 429.1c-1.56-.18-3.07-.38-4.56-.59-1.73-20.33-3.26-39.92-4.45-57.62 4.88.33 10.01.51 15.52.51zm20.62 60.22c3.08 0 6.27-.07 9.54-.18 2.83 20.46 5.77 41 8.47 59.5a255 255 0 01-44.32-4.18c-1.87-19.09-3.66-38.47-5.26-57.24a225.23 225.23 0 0031.57 2.1zm10.54-.21a343.55 343.55 0 0044.46-4.74c3.44 21 6.89 42.15 10 61.72a370.13 370.13 0 01-46 2.56c-2.68-18.54-5.62-39.07-8.46-59.54zm45.44-4.92c12.54-2.16 26-5.1 40.32-8.94 4.25 21.87 8.58 44.05 12.41 63.69-15.18 3.17-29.41 5.47-42.7 7-3.14-19.55-6.58-40.75-10.03-61.75zm41.29-9.2q4.25-1.16 8.59-2.41c.53 2.66 1.15 5.41 1.9 8.27 4.4 16.92 9.76 36.61 14.87 55q-6.58 1.55-12.94 2.88c-3.82-19.66-8.16-41.85-12.42-63.74zm8.4-3.38c-2.9.83-5.77 1.64-8.59 2.4-4.14-21.3-8.2-42.26-11.66-60.24A136.07 136.07 0 00456 341.78c1.45 6.17 2.49 11.07 3.06 13.87-11.61 11.5-18.9 28.77-13.26 58.26zm11.12-72.71a115.57 115.57 0 0026.23-23.28q3 9.87 5.8 20.85a41.44 41.44 0 00-12.63 4.44 80.15 80.15 0 00-16.38 11.62c-.61-2.94-1.63-7.72-3.02-13.63zm-.24-1.05c-4-16.78-10.78-42-19.4-60.38a68.53 68.53 0 00-5-8.75c3.16-2.48 6-4.94 8.44-7.31a104.68 104.68 0 0011-12.13 26.28 26.28 0 014 4.39c9.87 14 18.91 34.44 27 60.79a114.3 114.3 0 01-26.04 23.39zM440.06 263c-2.44 2.33-5.2 4.75-8.31 7.19-9.11-13.41-23.7-26.26-40.88-36.55a46.93 46.93 0 007.13-7.14c22.43 6.84 42.76 15.67 53 24.4a102.41 102.41 0 01-10.94 12.1zM390 233.1a169.28 169.28 0 00-41-17.52 317.18 317.18 0 0148 10.61 46.7 46.7 0 01-7 6.91zm-50.3-17.32c-.78 1.09-1.61 2.23-2.51 3.47-6.26 8.6-15.18 20.87-22.68 35.38-6.48-.88-11.52-2.83-14.58-5.75a483.92 483.92 0 0139.76-33.1zm-40.51 33.8c3.35 3.3 8.62 5.18 14.81 6-6.18 12.14-11.31 25.8-13.06 40.17-14.77-4.68-23.6-12.07-26.32-18.8 6.1-8.49 14.26-17.6 24.56-27.37zm-36.58 105c-1.09-19.59-1.82-34.89-1.88-41.8-.1-10.54 4.23-22.05 13.23-34.87 2.33 5 8.16 11.17 19 16a72 72 0 007.89 3c-.27 2.52-.46 5.05-.51 7.59-.28 13.6.76 37 2.66 65.36-22.88-1.69-37.1-7-40.32-15.25zm.14 2.38c4.88 7.64 19.45 12.31 40.28 13.85 1.19 17.67 2.7 37.24 4.43 57.55-21.59-3.16-35.06-9-41.24-13.67-1.3-20.55-2.52-40.69-3.48-57.69zm7.06 113.68c-1.14-17.31-2.35-36.19-3.52-54.74 6.77 4.75 20.47 10.41 41.26 13.47 1.6 18.75 3.38 38.11 5.26 57.19-20.5-4-34.76-10.17-43.01-15.91zm4 60.29c-.85-12.45-2.3-34.05-3.93-59 8.42 5.62 22.85 11.76 43 15.75 2.17 22 4.45 43.59 6.72 63.39-21.91-5.35-37.74-13.25-45.79-20.13zm46.85 20.35c-2.27-19.81-4.56-41.42-6.73-63.45 4.15.8 8.52 1.51 13.14 2.1a272.78 272.78 0 0031.23 2.13c4.33 29.69 8 54.18 9.68 65.06a227.74 227.74 0 01-47.32-5.83zm48.34 5.87c-1.64-10.76-5.34-35.29-9.69-65.07h3.08a370.29 370.29 0 0042.93-2.64c4.12 25.84 7.67 48.76 9.88 64.51a272.82 272.82 0 01-46.2 3.2zm71.4-8.15c-8.28 2-16.36 3.59-24.21 4.82-2.21-15.75-5.75-38.65-9.88-64.47q20.58-2.46 42.73-7.12c5.82 29.8 10.47 53.57 12 61.22A405.57 405.57 0 01440.4 549zm21.6-5.84c-1.52-7.76-6.16-31.47-12-61.14q6.44-1.36 13-2.91c7.23 26.05 13.88 49.33 16.43 58.19q-8.15 3.03-17.43 5.86zm106.08-70.79c-1.2-4.37-2.44-8.89-3.7-13.53-2.52-9.21-5.15-18.85-7.87-28.73 8.46-2.05 16.28-4 23.67-6 6.19 22.13 11.11 39.69 12.88 46a232.5 232.5 0 01-25.01 2.26zm11.68-49.07l-21.05 5.25-2.47.59c-5.81-21.09-12-43.28-18.33-64.81q12.63-2.46 23.94-5.69c5.85 21.01 12.56 45.65 17.88 64.66zm-17-64.94A196.67 196.67 0 00592.9 347c7 20 15.43 45.25 21.38 64.62l-33.61 11.3c-5.32-18.92-12.02-43.59-17.89-64.56zM594 470l-12.91-46.12a265.52 265.52 0 0033.18-11.18c5.84 19.2 10.67 36.14 13.67 47.55A130.09 130.09 0 01594 470zm61.78-42.51c1.81 5.29 3.3 9.66 4.35 12.59-10.46 8.13-20.28 14.7-31.27 19.75-3-11.43-7.83-28.36-13.66-47.51a197.08 197.08 0 0029.8-15.93c4.22 11.79 8 22.76 10.8 31.06zm-34.43-89c7.78 15.49 16.18 37.29 23.26 57l-29.41 15.87c-6-19.39-14.37-44.65-21.41-64.69a128.41 128.41 0 0023.77-14.78 71.91 71.91 0 013.81 6.55zM617 331a128.49 128.49 0 01-23.56 14.68c-5-14.21-10.08-27.74-14.94-39.45C591 307.49 606 314.31 617 331zm-52.2-23.86a37.21 37.21 0 0112.57-1c4.93 11.83 10.08 25.56 15.16 40a195.89 195.89 0 01-30.06 11.32c-4.1-14.64-8.06-28.77-11.5-41l-1 .27c3.44 12.26 7.4 26.4 11.5 41.05q-11.29 3.24-23.95 5.68l-1.52-5.67c.13-29.61 14.56-46.79 28.84-50.68zm-5.32 153q1 3.69 2 7.26c-10.53 23.74-28 48.69-77.37 68.1-2.62-9.13-9.15-32-16.25-57.57l.45-.1-.24-1-.48.12c-5.11-18.41-10.49-38.14-14.89-55.09-12-45.95 5.44-62.87 26-74.31 15-8.32 39.18-6.15 52.45 11.75 10.06 33.83 19.85 69.8 28.37 100.85zM528 348.71c-11-9.26-25.5-12.17-38.09-10.11q-2.91-11.39-6-21.61a125.49 125.49 0 0020.81-38.14c7.42 19.15 15.38 43.59 23.28 69.86zm-35.14-96.41a224.53 224.53 0 0111.3 25.11 125.36 125.36 0 01-20.61 38.41c-8.05-26.14-17.07-46.41-26.92-60.42a28.11 28.11 0 00-4.22-4.64c6.39-8.68 8.53-16.08 6.5-22.36 15.51 5.4 28 13.04 33.95 23.9zM457.7 228c2.27 6 .22 13.43-6.08 22.09-10.43-8.91-30.61-17.72-52.91-24.51a28.44 28.44 0 004.21-8.06c18.8 1.81 38.39 4.93 54.78 10.48zm-60-2.73a318.82 318.82 0 00-48.7-10.7l4.09.13c12.93.4 30.45 1 48.81 2.7a27.55 27.55 0 01-4.19 7.85z" transform="translate(524.15 20.16)"/></svg>