<svg viewBox="0 0 90 91" xmlns="http://www.w3.org/2000/svg" fill-rule="evenodd" clip-rule="evenodd" stroke-linejoin="round" stroke-miterlimit="2"><path d="M.211 28.937c11.901 1.461 13.14 13.154 14.635 22.367 2.103 12.961 7.4 34.03 41.327 38.973-10.505-6.377-13.179-14.424-1.719-20.649 11.46-6.225 30.368-12.906 33.233-38.11C71.965 45.745 31.129 52.516 24.468 64.01c2.763-10.659 21.582-18.033 38.4-25.382 12.174-5.32 28.6-11.807 26.117-37.923-11.712 16.818-32.048 21.744-47.03 27.969-15.822 6.574-19.87 10.24-23.026 15.294.182-5.769 5.207-11.661 10.073-14.583-5.157-4.403-19.354-7.248-28.791-.448z" fill="#fff"/></svg>