<svg viewBox="0 0 138 130" xmlns="http://www.w3.org/2000/svg" fill-rule="evenodd" clip-rule="evenodd" stroke-linejoin="round" stroke-miterlimit="2"><g fill="#466179"><path d="M24.211 28.937c11.901 1.461 13.14 13.154 14.635 22.367 2.103 12.961 7.4 34.03 41.327 38.973-10.505-6.377-13.179-14.424-1.719-20.649 11.46-6.225 30.368-12.906 33.233-38.11C95.965 45.745 55.129 52.516 48.468 64.01c2.763-10.659 21.582-18.033 38.4-25.382 12.174-5.32 28.6-11.807 26.117-37.923-11.712 16.818-32.048 21.744-47.03 27.969-15.822 6.574-19.869 10.24-23.026 15.294.182-5.769 5.207-11.661 10.073-14.583-5.157-4.403-19.354-7.248-28.791-.448z"/><path d="M10.027 128.064c.951 0 1.516-.057 1.697-.17.181-.113.249-.441.204-.985H3.645v2.513h-1.29c.045-.725.068-1.653.068-2.784v-2.648c0-.996-.023-1.901-.068-2.716h10.931c-.091.86-.136 1.788-.136 2.784v3.87c0 .543-.181.905-.543 1.086-.362.181-.973.34-1.833.475-.091-.452-.34-.927-.747-1.425zm-1.63-14.395c-.045.453-.067.928-.067 1.426h3.734c.815 0 1.561-.022 2.24-.068v1.223a32.239 32.239 0 00-2.172-.068H8.33v1.018h3.259c.588 0 1.222-.023 1.901-.068v1.222a28.881 28.881 0 00-1.901-.068H8.33v.951h4.549c.86 0 1.652-.023 2.376-.068v1.222a36.433 36.433 0 00-2.376-.068H2.287c-.725 0-1.449.023-2.173.068v-1.222c.77.045 1.494.068 2.173.068h4.685v-.951H3.848c-.724 0-1.403.023-2.037.068v-1.222c.634.045 1.313.068 2.037.068h3.124v-1.018H3.101c-.769 0-1.471.022-2.104.068v-1.223a33.2 33.2 0 002.104.068h3.871c0-.543-.023-1.018-.068-1.426h1.493zm3.531 9.913v-1.222H3.645v1.222h8.283zm0 2.241v-1.154H3.645v1.154h8.283zm11.882-12.357c.453.181 1.041.339 1.765.475-.452.498-.769 1.019-.95 1.562h6.178c-.09.362-.181 1.041-.271 2.037l-.272 2.376c-.045.679-.305 1.064-.781 1.154-.475.091-1.075.181-1.799.272a4.211 4.211 0 00-.543-1.494c.769.045 1.267.057 1.494.034.226-.023.362-.124.407-.306l.272-3.055h-8.012v5.975h11.339c-.091.543-.159 1.267-.204 2.173l-.136 3.462c-.136.589-.498.951-1.086 1.087-.589.136-1.358.249-2.309.339a6.575 6.575 0 00-.611-1.561c.951.09 1.596.113 1.935.068.34-.046.6-.204.781-.476l.204-4.073H19.94c.045-.996.068-1.902.068-2.716v-2.58c0-.86-.023-1.766-.068-2.716h3.327c.226-.543.407-1.222.543-2.037zm-6.654 11.882c.543.045 1.268.068 2.173.068h7.265c1.086 0 1.833-.023 2.24-.068v1.154c-.407-.045-1.154-.068-2.24-.068h-7.265c-.86 0-1.584.023-2.173.068v-1.154zm7.129-7.944c.77.86 1.381 1.675 1.834 2.444-.498.317-.883.589-1.155.815a15.35 15.35 0 00-1.765-2.512c.362-.227.724-.476 1.086-.747zm13.308 6.857c1.358-.95 2.365-1.923 3.021-2.919.657-.996 1.008-2.241 1.053-3.735H37.05v11.543h-1.562a23.63 23.63 0 00.136-2.309v-7.536c0-.905-.023-1.856-.068-2.852h6.179c0-1.222-.023-2.127-.068-2.716.724.046 1.29.068 1.697.068-.226.589-.339 1.471-.339 2.648h6.382c-.09.951-.136 1.901-.136 2.852v8.283c0 .679-.271 1.098-.814 1.256-.544.159-1.29.306-2.241.442-.136-.453-.453-.951-.951-1.494 1.087 0 1.788-.034 2.105-.102.317-.068.475-.283.475-.645v-9.438h-4.888c0 .815-.068 1.607-.204 2.377.408.317 1.132.871 2.173 1.663 1.041.792 1.788 1.415 2.241 1.868-.498.407-.883.769-1.155 1.086-.769-.905-1.991-2.037-3.666-3.395-.815 1.403-1.879 2.716-3.191 3.938-.543-.453-1.064-.747-1.562-.883zm22.61-3.87c1.222 1.041 2.433 1.833 3.632 2.377 1.2.543 2.478.928 3.836 1.154-.407.317-.679.747-.814 1.29-.86-.226-1.72-.521-2.58-.883 0 2.671.022 4.346.067 5.025h-1.29v-.951h-6.382v1.154h-1.29c.045-.588.068-2.331.068-5.228-.86.408-1.811.815-2.852 1.222-.181-.362-.475-.746-.882-1.154 1.991-.452 3.723-1.256 5.194-2.41 1.471-1.154 2.365-2.184 2.682-3.089.452.271.882.497 1.29.678l-.679.815zm6.518-4.413c-.045.407-.068.837-.068 1.29 0 .453.023.883.068 1.29h-1.358v-1.629H54.364v1.697h-1.358c.045-.498.068-.951.068-1.358 0-.453-.023-.883-.068-1.29h13.715zm-3.667 11.407v-2.377h-6.382v2.377h6.382zm.611-3.395c-1.357-.543-2.738-1.471-4.141-2.784-1.041 1.041-2.263 1.969-3.667 2.784h7.808zm-1.697-6.315c2.127 1.177 3.531 1.969 4.21 2.377a8.45 8.45 0 00-.815 1.086c-1.539-1.041-2.92-1.878-4.142-2.512.362-.362.611-.679.747-.951zm-8.759 2.58c1.992-.814 3.395-1.652 4.21-2.512.136.227.43.566.883 1.019-1.675 1.131-3.078 1.946-4.21 2.444a3.518 3.518 0 00-.883-.951zm5.093-6.11c.362-.181.792-.43 1.29-.747.498.634.905 1.267 1.222 1.901-.634.226-1.087.43-1.358.611-.045-.181-.43-.769-1.154-1.765zm23.696 6.722a27.914 27.914 0 00-.068 1.629c0 .317.022.815.068 1.494h-8.352v1.154h9.031a52.763 52.763 0 00-.068 2.241c0 .452.022 1.086.068 1.901h-1.358v-.679h-7.673v.882H72.22a85.53 85.53 0 00.068-2.104v-4.278c0-.769-.022-1.516-.068-2.24h9.778zm-4.821-4.074c.543 1.041.86 1.675.95 1.901h6.654a22.127 22.127 0 00-.068 1.426c0 .271.023.679.068 1.222h-1.493v-1.562h-12.29v1.63h-1.493c.045-.408.067-.815.067-1.222 0-.408-.022-.906-.067-1.494h7.061c-.136-.362-.362-.815-.679-1.358a3.587 3.587 0 001.29-.543zm.136-.611a40.253 40.253 0 00-2.512-.068l.679 1.358a8.65 8.65 0 00-1.426.475 12.28 12.28 0 00-.543-1.833h-.883a16.37 16.37 0 01-1.053 1.188c-.294.294-.645.6-1.052.917-.272-.363-.679-.679-1.222-.951.95-.634 1.675-1.267 2.173-1.901.498-.634.86-1.29 1.086-1.969.407.181.973.362 1.697.543a7.131 7.131 0 00-.882 1.086h2.24c.543 0 1.109-.022 1.698-.067v1.222zm4.549 1.833a10.338 10.338 0 00-.611-1.901h-1.29a118.63 118.63 0 01-1.019 1.561c-.498-.271-.95-.52-1.358-.746a6.436 6.436 0 001.29-1.596 8.04 8.04 0 00.747-1.867 12.94 12.94 0 001.698.475 3.127 3.127 0 00-.815 1.086h2.648c.407 0 1.064-.022 1.969-.067v1.222a39.562 39.562 0 00-2.58-.068l.679 1.358-1.358.543zm-.543 9.573v-1.358h-7.673v1.358h7.673zm-.679-4.617v-1.086h-6.994v1.086h6.994zm21.048-8.351c-.046.588-.068 1.879-.068 3.87 0 1.947.022 3.35.068 4.21h-3.735v2.037h2.037c.815 0 1.449-.023 1.901-.068v1.222a21.812 21.812 0 00-1.901-.068h-2.037v2.308h2.445c.86 0 1.584-.022 2.172-.067v1.222a27.559 27.559 0 00-2.104-.068H93.88c-.725 0-1.358.022-1.902.068v-1.222c.589.045 1.223.067 1.902.067h2.783v-2.308h-2.24c-.589 0-1.109.023-1.562.068v-1.222c.453.045.973.068 1.562.068h2.24V122.7h-3.666c.045-.679.068-2.06.068-4.142 0-2.082-.023-3.395-.068-3.938h8.691zm-11.067.883c.497 0 1.041-.023 1.629-.068v1.29a23.549 23.549 0 00-1.629-.068h-.612v3.666c.634 0 1.268-.022 1.902-.068v1.291a26.273 26.273 0 00-1.902-.068v4.345c.86-.317 1.585-.611 2.173-.883.091.453.181.838.272 1.155-.86.271-1.822.622-2.886 1.052-1.064.43-1.89.826-2.478 1.188a34.487 34.487 0 00-.611-1.426c.588-.09 1.358-.339 2.308-.747v-4.684c-.814 0-1.516.022-2.105.068v-1.291c.634.046 1.336.068 2.105.068v-3.666h-.814c-.408 0-.906.023-1.494.068v-1.29c.588.045 1.086.068 1.494.068h2.648zm9.709 6.11v-2.444h-2.377v2.444h2.377zm0-3.462v-2.445h-2.377v2.445h2.377zm-3.667 3.462v-2.444h-2.308v2.444h2.308zm0-3.462v-2.445h-2.308v2.445h2.308zm20.98-4.482c.272.453.657.928 1.155 1.426a43.768 43.768 0 00-3.497.238c-.973.113-2.161.238-3.565.373.227.227.544.43.951.611a14.55 14.55 0 00-1.731 1.257c-.566.475-1.121.916-1.664 1.324h3.395a39.758 39.758 0 002.852-2.105 6.98 6.98 0 001.629.95c-.634.272-1.245.566-1.833.883-.588.317-1.55.894-2.886 1.731a99.294 99.294 0 01-3.428 2.071c2.67-.136 5.16-.249 7.468-.339-.226-.227-.815-.702-1.765-1.426a4.1 4.1 0 001.154-.679c.543.407 1.166.916 1.867 1.528.702.611 1.37 1.21 2.003 1.799-.543.317-.973.611-1.29.882a8.144 8.144 0 00-1.018-1.086c-1.222.045-2.671.113-4.346.204v4.074c0 .86-.215 1.369-.645 1.527-.43.159-1.21.328-2.342.51a4.168 4.168 0 00-.611-1.562c1.041 0 1.686-.034 1.935-.102.249-.068.373-.328.373-.781v-3.666c-2.761.045-4.639.158-5.635.339a26.728 26.728 0 00-.475-1.426c.995-.09 1.878-.316 2.648-.678.769-.363 1.697-.906 2.783-1.63-1.041 0-1.822.023-2.342.068-.521.045-1.098.113-1.731.204a57.927 57.927 0 00-.408-1.426c.77 0 1.539-.306 2.309-.917.769-.611 1.358-1.279 1.765-2.003-2.535.091-4.187.181-4.956.272a7.65 7.65 0 00-.476-1.222c2.535 0 4.798-.091 6.79-.272 1.992-.181 3.847-.498 5.567-.951zm-1.833 10.728c.543.408 1.177.872 1.901 1.392.725.521 1.336 1.03 1.834 1.528-.363.317-.725.679-1.087 1.086a15.89 15.89 0 00-1.833-1.697 28.328 28.328 0 00-1.765-1.29c.407-.317.724-.657.95-1.019zm-6.586 1.019c-.543.271-1.143.724-1.799 1.358a51.216 51.216 0 01-2.003 1.833c-.407-.408-.792-.702-1.154-.883 1.267-.769 2.444-1.856 3.53-3.259.408.317.883.634 1.426.951zm25.394-9.302c.679 0 1.403-.023 2.172-.068v1.222a33.938 33.938 0 00-2.104-.068h-3.803c.362.272.792.543 1.29.815-.362.271-.735.668-1.12 1.188a75.091 75.091 0 01-1.663 2.139c1.041 0 2.67-.113 4.888-.34a62.965 62.965 0 00-1.086-1.29 6.526 6.526 0 001.086-.747c.77.815 1.607 1.856 2.512 3.124a5.945 5.945 0 00-1.154.882 22.24 22.24 0 01-.679-.95c-.634.045-1.041.09-1.222.136v5.092c0 .543.226.815.679.815h.679c.407 0 .679-.611.815-1.834.407.317.882.544 1.426.679-.408 1.539-.974 2.309-1.698 2.309h-1.833c-.905 0-1.358-.475-1.358-1.426v-5.5c-.634.046-1.064.091-1.29.136.045 1.675-.17 3.044-.645 4.108-.475 1.064-1.392 2.116-2.75 3.157-.226-.362-.634-.656-1.222-.883a8.763 8.763 0 001.833-1.493 5.973 5.973 0 001.154-1.833c.272-.679.385-1.653.34-2.92-.679.045-1.29.136-1.833.272a8.114 8.114 0 00-.544-1.766c.544-.045 1.143-.498 1.8-1.358.656-.86 1.097-1.697 1.324-2.512h-1.087c-.588 0-1.312.023-2.172.068v-1.222a33.97 33.97 0 002.105.068h5.16zm-8.895-1.426c-.317.407-.656.928-1.018 1.562-.362.633-.906 1.539-1.63 2.715a41.12 41.12 0 012.037-.067c.362-.634.656-1.268.883-1.902.498.317 1.018.589 1.561.815-.316.317-.746.894-1.29 1.732l-2.308 3.564a46.273 46.273 0 003.463-.475c-.227.543-.34.973-.34 1.29-.407.045-1.12.136-2.139.271-1.018.136-1.912.317-2.682.544a15.777 15.777 0 00-.475-1.358c.498-.136.973-.543 1.426-1.222a32.45 32.45 0 001.358-2.241c-.407.045-.883.102-1.426.17-.543.068-.996.147-1.358.237a11.423 11.423 0 00-.611-1.29c.543-.135 1.143-.86 1.799-2.172.657-1.313 1.03-2.264 1.121-2.852.543.272 1.086.498 1.629.679zm1.833 10.863a6.176 6.176 0 000 1.29c-1.041.272-2.07.555-3.089.849-1.018.294-1.799.555-2.342.781a8.673 8.673 0 00-.747-1.426 50.537 50.537 0 003.191-.611c.996-.226 1.992-.52 2.987-.883zm4.21-12.085c.498.815.86 1.448 1.086 1.901-.317.136-.747.339-1.29.611-.362-.86-.701-1.516-1.018-1.969.543-.181.95-.362 1.222-.543z" fill-rule="nonzero"/></g></svg>