<svg viewBox="0 0 309 124" xmlns="http://www.w3.org/2000/svg" fill-rule="evenodd" clip-rule="evenodd" stroke-linejoin="round" stroke-miterlimit="2"><g fill="#466179"><path d="M45.273 32.023C46.899 20.387 47.963 7.84 44.12.815c9.02 5.412 13.217 16.26 9.214 22.261-1.242 1.863-2.35 4.558-3.299 7.55 9.447-2.369 19.503-2.513 35.977-3.753-13.204 4.401-26.847 9.022-38.182 12.386-.825 4.006-1.344 7.683-1.506 9.863 7.417.802 11.225 2.606 11.426 5.212.2 2.605-5.212 6.614-9.02 11.225 8.218-3.809 14.833-6.014 17.639-3.608 2.806 2.405-6.214 4.61-6.214 4.61s-.413-3.207-6.821 2.606c-6.408 5.812-8.613 10.222-8.212 15.434 1.603-.802 2.405-3.408 3.608-5.412 1.202-2.005 6.214-3.678 7.216-3.543 1.002.135 2.405-4.074 3.608-5.277.401 2.005-.802 3.338-.602 5.277.201 1.939 2.807 1.939 1.604 11.761-1.203 9.822-1.403 17.639-1.002 21.648s-2.618 4.41-6.22-2.205-1.81-20.646 0-25.657c-1.598-2.004-6.007 3.207-6.809 9.421-.802 6.214-1.002 25.657-1.002 29.866 0 4.21-3.608 4.61-6.214-4.61-2.606-9.22-2.682-33.551 9.663-45.628-15.297 8.186-28.314 17.043-34.218 23.35-5.905 6.307-9.528 5.501-14.091 5.501 5.368-2.952 16.238-11.137 22.679-16.237 6.441-5.099 15.7-13.419 15.7-13.419-7.246-6.575-11.809-13.016-14.627-13.285-2.818-.268-1.073-4.562 2.416-6.173 3.489-1.61 12.043-1.976 16.086-1.659.282-2.396.681-5.089 1.117-7.958-6.644 1.885-12.29 3.227-16.296 3.68-4.433.502-6.616-2.75-9.676-3.94 4.653-.194 16.806-4.7 27.211-8.079zm-4.218 32.852c-.671-3.087.134-8.723.671-10.467.537-1.745-8.186-.135-9.528.134-1.342.268-3.489 3.22-.805 5.77 2.684 2.55 8.052 6.441 8.991 7.246.939.806.805-.536.671-2.683zm6.441-9.528c.986-1.775 3.489.671 2.818 2.147-.671 1.476-2.818 3.892-3.623 5.234-.671-3.489.134-6.173.805-7.381zm260.51-30.512v78h-153.5v-78h153.5zM294.78 77.593c0 2.4-.804 4.764-2.412 7.092-1.608 2.328-3.864 4.224-6.768 5.688-2.904 1.464-6.204 2.196-9.9 2.196-3.12 0-5.592-.252-7.416-.756-1.824-.504-2.736-1.212-2.736-2.124 0-.48.348-1.284 1.044-2.412.696-1.128 1.236-1.692 1.62-1.692.576 0 .864.12.864.36 0 .144-.084.312-.252.504-.168.192-.252.384-.252.576 0 .144.3.36.9.648.6.288 1.524.552 2.772.792 1.248.24 2.76.36 4.536.36 2.832 0 5.316-.552 7.452-1.656 2.136-1.104 3.78-2.496 4.932-4.176 1.152-1.68 1.728-3.312 1.728-4.896 0-2.064-.996-3.84-2.988-5.328-1.992-1.488-5.196-2.904-9.612-4.248-4.272-1.392-7.572-2.556-9.9-3.492-2.328-.936-4.212-2.088-5.652-3.456-1.44-1.368-2.16-3.036-2.16-5.004 0-2.64 1.488-5.244 4.464-7.812 2.976-2.568 6.648-4.656 11.016-6.264 4.368-1.608 8.424-2.412 12.168-2.412 1.92 0 2.952.384 3.096 1.152.144.768.216 1.632.216 2.592 0 .72-.264 1.08-.792 1.08-.24 0-.516-.084-.828-.252a8.241 8.241 0 00-.828-.396 13.835 13.835 0 00-1.008-.288c-.384-.096-.936-.144-1.656-.144-2.496 0-5.496.648-9 1.944-3.504 1.296-6.54 2.904-9.108 4.824-2.568 1.92-3.852 3.768-3.852 5.544 0 1.44.588 2.688 1.764 3.744 1.176 1.056 2.748 1.956 4.716 2.7 1.968.744 4.752 1.668 8.352 2.772 5.28 1.536 9.18 3.264 11.7 5.184 2.52 1.92 3.78 4.272 3.78 7.056zm-93.024-.288c0 .48-.432 1.344-1.296 2.592-2.016 2.736-4.728 5.388-8.136 7.956-3.408 2.568-7.152 3.852-11.232 3.852-4.32 0-7.848-1.236-10.584-3.708-2.736-2.472-4.104-6.132-4.104-10.98 0-3.312.576-7.056 1.728-11.232 1.152-4.176 2.496-7.8 4.032-10.872 1.584-3.12 3.42-5.712 5.508-7.776s4.188-3.096 6.3-3.096c2.064 0 3.66.744 4.788 2.232 1.128 1.488 1.692 3.336 1.692 5.544 0 .816-.156 1.644-.468 2.484-.312.84-.66 1.548-1.044 2.124-.384.576-.672.864-.864.864-.384 0-.576-.216-.576-.648 0-.144.084-.468.252-.972.168-.504.252-.924.252-1.26 0-1.2-.144-2.328-.432-3.384a4.31 4.31 0 00-1.44-2.268c-.72-.6-1.512-.9-2.376-.9-3.456 0-6.696 3.336-9.72 10.008-1.2 2.688-2.208 5.712-3.024 9.072-.816 3.36-1.224 6.6-1.224 9.72 0 2.16.444 4.128 1.332 5.904a10.524 10.524 0 003.816 4.248c1.656 1.056 3.588 1.584 5.796 1.584 3.504 0 6.684-.84 9.54-2.52 2.856-1.68 5.676-3.84 8.46-6.48.096-.096.432-.636 1.008-1.62.576-.984 1.008-1.476 1.296-1.476.288 0 .48.072.576.216.096.144.144.408.144.792zm53.928 9.072c0 .336-.276.708-.828 1.116a3.017 3.017 0 01-1.836.612c-.576 0-1.032-.036-1.368-.108-.336-.072-.576-.276-.72-.612-.432-.72-.936-2.856-1.512-6.408-.576-3.552-1.128-7.632-1.656-12.24-1.152-14.064-2.04-21.24-2.664-21.528-.528 1.152-1.344 3.324-2.448 6.516-1.104 3.192-2.376 7.356-3.816 12.492-1.584 5.52-2.784 9.324-3.6 11.412-.816 2.088-1.536 3.372-2.16 3.852-.384.336-.852.66-1.404.972-.552.312-1.02.468-1.404.468-.48 0-.792-.06-.936-.18-.144-.12-.312-.492-.504-1.116-.192-.72-.648-2.964-1.368-6.732-.72-3.768-1.272-7.164-1.656-10.188l-.432-3.024c-.816-6.24-1.368-9.72-1.656-10.44-.912.816-1.776 2.628-2.592 5.436-.816 2.808-1.752 6.78-2.808 11.916-1.008 3.984-2.232 10.464-3.672 19.44-.048.528-.408 1.008-1.08 1.44-.672.432-1.272.648-1.8.648-.768 0-1.2-.744-1.296-2.232-.048-1.488-.372-4.704-.972-9.648s-1.14-9.288-1.62-13.032c-.672-5.328-1.584-10.272-2.736-14.832-.336-1.44-.504-2.256-.504-2.448 0-.72.348-1.308 1.044-1.764a4.058 4.058 0 012.268-.684c.384 0 .792 1.488 1.224 4.464.432 2.976.888 6.72 1.368 11.232l.216 2.376c.192 1.584.408 3.24.648 4.968.912 7.344 1.416 11.952 1.512 13.824a429.58 429.58 0 013.24-16.776l.648-3.168c1.056-5.088 2.208-8.94 3.456-11.556 1.248-2.616 2.856-3.924 4.824-3.924.624 0 1.32 1.62 2.088 4.86s1.368 7.02 1.8 11.34c.336 3.072.768 6.072 1.296 9s1.008 4.968 1.44 6.12c.288-.816.876-2.616 1.764-5.4a810.501 810.501 0 002.484-7.92c2.352-8.016 4.848-15.192 7.488-21.528.48-1.008.948-1.74 1.404-2.196.456-.456 1.26-.684 2.412-.684.624 0 1.296 2.736 2.016 8.208.72 5.472 1.32 11.808 1.8 19.008 1.296 10.176 2.472 15.72 3.528 16.632.72.624 1.08 1.296 1.08 2.016zM70.346 105.495c2.696 4.137 8.889 2.858 11.154-1.177 2.266-4.035 3.66-5.548 7.495-5.548 3.834 0 6.971.841 12.548-2.186 5.578-3.026 18.998-10.423 21.96-10.759 2.963-.336 1.569-5.212-2.788-4.371-4.357.84-10.283 5.211-17.08 8.574-6.797 3.362-9.76 5.38-14.64 5.884-4.88.504-22.483 3.699-18.649 9.583z"/><path d="M116.881 19.754c-4.183 1.009-10.283 4.539-16.732 13.113S84.638 53.546 80.106 56.404c6.623-2.522 10.632-7.397 13.42-9.583-2.788 7.397-5.926 17.821-7.32 29.757-1.394 11.937.349 12.441 3.486 10.424 3.137-2.018 29.803-12.273 34.857-12.105 5.054.168 5.926 1.513 4.88 7.734-1.046 6.22-5.403 15.803-11.677 18.493-6.274 2.69-9.934.84-16.732 2.521-6.797 1.682-5.402 2.186.523 1.514 5.926-.673 10.283.336 13.769 2.689 3.486 2.354 7.146 5.885 13.769-8.406 6.622-14.29 10.631-32.278 5.925-32.278-4.705 0-10.283 1.345-26.84 7.733 8.192-6.557 14.117-10.928 18.126-10.928s1.917-5.211-3.834-3.362c-5.752 1.849-21.786 9.919-24.749 11.768 8.191-6.388 13.943-9.919 14.989-11.096 1.045-1.176 0-1.849-.349-3.53-.348-1.681 2.266-3.867 5.229-6.052 2.963-2.186.697-2.69-.697-3.195-1.395-.504-2.092-.504-1.046-3.362s1.743-5.548.348-7.397c-1.394-1.85-7.145 2.69-10.457 4.203-3.311 1.513-6.1 4.203-8.017 4.875-1.22-2.69 1.046-3.026 2.789-4.875 1.742-1.85 14.291-13.954 16.557-16.98 2.266-3.026 3.311-6.053-.174-5.212zM92.48 73.888c-.871 2.186-2.091 8.406 0 7.566 2.092-.841 8.63-3.445 10.895-4.958 2.266-1.513 5.08-4.141 7.346-5.991 2.265-1.849-11.771 4.471-14.211 6.321-2.44 1.849-4.204.761-4.03-2.938zm3.138-15.299c0 2.186 1.742 2.354 4.008.673 1.195-.887 8.861-7.535 8.415-6.514-.401.915-8.811 9.418-9.635 10.213-1.743 1.681-4.706 5.884-4.706 3.53 0-2.354 1.569-7.733 1.918-7.902zm11.2.007c-3.694 2.185-6.834 6.673-6.834 6.673s5.35-3.71 6.353-4.839c1.003-1.129 4.441-4.177.481-1.834zm-9.109-4.041c0-2.354.871-4.876 4.531-6.893 3.66-2.018 7.146-5.044 7.495-3.195.348 1.85.174 3.195-2.789 4.54-2.963 1.345-8.54 5.38-9.237 5.548z"/></g></svg>