<svg id="图层_1" data-name="图层 1" xmlns="http://www.w3.org/2000/svg" viewBox="0 0 1837.19 660.33"><defs><style>.cls-1{font-size:34.34px;font-family:InkFree, Ink Free;}.cls-1,.cls-3{fill:#207d93;}.cls-2{font-family:AdobeSongStd-Light-GBpc-EUC-H, Adobe Song Std;letter-spacing:0em;}</style></defs><title>404</title><text class="cls-1" transform="translate(241.56 109.45) rotate(13.53)">The birds have flown away<tspan class="cls-2" x="392.85" y="0">！</tspan></text><path class="cls-3" d="M863.27,395.41c78.65-6.93,189.66-129.75,229.7-208.59l-1.57-1C1036,273.6,966.14,359.06,863.27,395.41Z" transform="translate(524.15 20.16)"/><path class="cls-3" d="M915.61,549.06c2.09.35,4.11.42,12.17,1.07-10.69,0-12.86.09-13.26,1.14-3.09,3.42-8.12,8.92-10.78,9.76,1.33,3.53,10.75,4,20.62-5.52,14.73-14.18,25.55-32.75,20.06-60.15-.94-4.67-3.46-7.14-5.33-6.06-1.08.62,1.76,4,2.68,6.77,2.27,7,2.5,12.23,1.88,16.19-9,1.72-12.73,5.34-12.73,5.34s-5,17.06-8.87,19.4c2.68-.54,2.68-.54,6.83.24C919.6,538.5,921.33,539.29,915.61,549.06Z" transform="translate(524.15 20.16)"/><path class="cls-3" d="M27.4,370.67c-2-2.45-1.87-3-4.61-2.76,2,20.66,135.88,142.23,185.22,121.83-58.4-5.44-105-43.39-148.08-82.65C47.6,395.82,38.09,383.42,27.4,370.67Z" transform="translate(524.15 20.16)"/><path class="cls-3" d="M125.58,403c.11-.41.23-.82.35-1.23-36.42-13.47-64.09-40.33-94-65.53C19.29,325.44,4,308.39-4.95,294.31c-1.67-2.65-1.76-3.94-4.64-4.13C-10.11,309.52,89.05,399.66,125.58,403Z" transform="translate(524.15 20.16)"/><path class="cls-3" d="M702.19,625.08c-2.45-2.09-3.15-3.81-5.5-6.17-1.93-.21-2.47.23-4.88.68a7.67,7.67,0,0,1,4.69-1.38c-1.76-3.44-1.67-5.25-3.67-8.1-2.26-3.17-7.66-5.4-14-6.87-1-4.42-.38-11.55.53-14.87.67-3.09-1.51-2.4-2.14,0-1.11,4.22-.67,9.11.13,15.27-1.34,3.49-4,10.86-1.06,15.81a27.21,27.21,0,0,1,2.92-5c-.57,1.91-1.58,2.67-2.16,5.6a36.66,36.66,0,0,0,8.4,10.31,17.37,17.37,0,0,1,.63-6.18c-.06,4,.53,7,.87,7.29,5.18,3.54,11.48,5.1,19.24,3.4C713.2,633.33,703.29,626,702.19,625.08Z" transform="translate(524.15 20.16)"/><path class="cls-3" d="M850.94,627.24c-6.57,11.15,82.66,22.37,120.45.12C968.32,618.88,930.38,650.82,850.94,627.24Z" transform="translate(524.15 20.16)"/><path class="cls-3" d="M918.46,407.52l-1-1c-30.22,21.4-64.66,30.57-101.11,38.53-3.88.86-7.1.46-8.54,3.39C817.52,453.9,899.45,429.43,918.46,407.52Z" transform="translate(524.15 20.16)"/><path class="cls-3" d="M21.62,415.15c-2-3-3.94-6.87-6.6-4.66,2.2,8.59,43.07,62.69,61.33,57.67C53.47,453.45,40.39,443,21.62,415.15Z" transform="translate(524.15 20.16)"/><path class="cls-3" d="M1291.25,13.7h-3.07C1289.21,15.68,1290.13,15.7,1291.25,13.7Z" transform="translate(524.15 20.16)"/><path class="cls-3" d="M1294.44,124.34c-.85-.81-1-.89-1.18-.9C1291.7,123.24,1292.78,126.5,1294.44,124.34Z" transform="translate(524.15 20.16)"/><path class="cls-3" d="M773.55,386.67c2-1.95,2.29-4.34,1.8-7.4-2.35-3.92-5.85-6.06-9.29-1.34-1.68,2.38,4.05,19-8.56,11.44-.81,2.4,5.76,15.75,18.38,3.88-2.31.5-4.69.43-5.73-1,2.77.94,5.15,0,7.84-2a15.73,15.73,0,0,0-1.11-7.7C776.26,384.59,775.18,386.4,773.55,386.67Z" transform="translate(524.15 20.16)"/><path class="cls-3" d="M1037.11,16.45c-41.17,7.79-81.8,13.1-122.76,22.54Q769.78,72.32,626,105.65c-36.42,8.37-71.67,13.71-107.5,22-7.17,1.66-12.23,2.38-18.91,3.41-3.39.53-4.16,3-7.87,3.59-6.93,1.13-12.57,2-18.95,2.94s-8.38,2.38-14.12,3.54c-4.44.89-9.05,1.71-13.35,2.27s-5.5-.64-9.12.84a84.27,84.27,0,0,1-14.7,4.36c-7.57,1.55-14.81,2.91-22.31,4.34-20.91,3.83-13.84,1.23-40.26,10.21-5.15,1.73-9.83-5.71-13.89-4.87-7.05,1.48-9.57,5.71-12.14,6.34-5.26,1.34-10.44.84-42.46-1.18-14.1-.88-58.69-3.66-81.73-6.37-17.85-2.1-34.43-5.27-51.86-7.93-25.67-3.93-50.27-10.77-75.28-16.9C59.68,126.86,39.9,119,18.13,114.28c-31.6-6.79-68.13-12.39-107.5-24.13C-126.73,79-167.93,69.23-212.14,58.65-250.63,49.45-288.82,38.89-332.2,30c-23.34-4.77-46.38-9.54-69.84-13C-440.67,11.25-478.57,7-517.87-.32c-1.84-.34-4-.75-6.28-1.2V2.23C-514.46,4-505,5.73-496.24,7.16c42.85,7,84.35,10.59,127.05,19.1,79.41,15.91,156,37.29,235.11,55.64,28.67,6.64,54.56,16.12,83,23,28,6.8,42.27,6.27,80.58,17,60.83,17.13,104.8,32.48,194.66,41.11,25.16,2.39,52.14,4.47,85.15,6.17,10.35.5,15.33-1,18,.86,5.23,3.8-8.06,13.58,3.38,15.37,4.89.71,3.37-9.43,5.48-12.9,2.36-3.83,8.25-6,11.67-2.21,1.18,1.3,3.06,4.1,3.07,6.65-.11,3.47-1.89,8.55-2.85,11.11-.74,1.9-2.32,2.57-3.93,3.51-3.31,2-10,12-11.75,16.26-.94,2.27-2.26,4.94-.35,7.44-52.26,40.22-76.58,71.33-76.34,97.52.29,30.86,13.73,227.75,13.86,229.74a13.63,13.63,0,0,1,.3,3.06c44.05,27.55,97.24,31.56,170.06,17.25,72.44-14.24,110-53.42,126.88-80.91a34.81,34.81,0,0,0-.42-4.51l.51-.14v.1c47.43-1.75,71-13.5,97.76-34.57l1.44-1.13-.64-1.72c-1-2.69-2.75-7.76-4.94-14.17-7.67-22.47-21.95-64.28-34.7-89.64-16.51-32.85-46.3-38.28-62.3-33.92-13.78,3.76-27.67,18.1-31.53,42.33-12.18-40.18-24.44-75.91-34.75-94.72-19.83-36.18-103-38.91-143.48-40.17-.32-1-.46-2.09-.68-2.73a32.7,32.7,0,0,1-1.58-6.1c-.3-2.16,1.48-4.13,1.83-5.86,1-5.08.75-5.49,3.92-9.6,1.37-1.81,2-14.05,1.82-16.52,13.85-9.18,136.17-28.62,305.17-66.74C832.3,64.22,984.56,16.94,1313-15.55v-4.61C1220.67-10.46,1128.34-.79,1037.11,16.45Zm-663,279.79c-4.25-20.3-9.11-34.1-14.65-46.43a122.38,122.38,0,0,0,13.92-5.49,212.12,212.12,0,0,1,29.5,42.81A158.76,158.76,0,0,1,374.14,296.24ZM403.36,288a195.46,195.46,0,0,1,18.19,52.5c.89,4.65,1.84,9.64,2.85,14.88a166,166,0,0,1-16.27,4.38q-11.28,2.45-22.35,4.34c-1.9-11.45-3.68-22.1-5.25-31.5l-3.37-20.22c-.91-5.45-1.84-10.49-2.81-15.19A158.55,158.55,0,0,0,403.36,288ZM359.07,248.9c-3-6.67-6.27-13-9.73-19.66-2-3.89-4.08-7.92-6.23-12.23,7,4.61,18,13.57,29.61,26.55A121.92,121.92,0,0,1,359.07,248.9Zm14.09,47.55A194.92,194.92,0,0,1,348.72,300c-4.43.36-8.67.54-12.71.57a428.45,428.45,0,0,1,.31-45.34c2.54-.35,5.07-.77,7.52-1.26a136.48,136.48,0,0,0,14.69-3.82C364.07,262.43,368.92,276.19,373.16,296.45ZM348.8,301a196.71,196.71,0,0,0,24.57-3.55c1,4.68,1.9,9.7,2.8,15.14l3.38,20.21c1.57,9.41,3.34,20.06,5.25,31.51-14.7,2.5-29,4.26-42.32,5.22-2.13-17.25-3.85-32.53-4.85-44.09-.74-8.45-1.25-16.39-1.58-23.87C340.05,301.52,344.28,301.35,348.8,301ZM385,365.28c3.11,18.65,6.55,39.39,10,60.37a343.15,343.15,0,0,1-44.43,4.73c-2.87-20.75-5.63-41.42-7.92-59.88C355.8,369.55,370.05,367.81,385,365.28Zm1-.17c7.33-1.26,14.81-2.71,22.39-4.35,5.75-1.25,11.16-2.72,16.25-4.37,3.46,18,7.52,38.91,11.65,60.18-14.48,3.89-27.9,6.79-40.29,8.91C392.5,404.5,389.05,383.76,386,365.11Zm36.58-24.78a195.78,195.78,0,0,0-18.26-52.7,129.61,129.61,0,0,0,27.25-16,68,68,0,0,1,4.85,8.57c8.65,18.46,15.46,43.8,19.42,60.54a134.82,134.82,0,0,1-30.43,14.34C424.36,349.89,423.41,344.94,422.53,340.33Zm-18.71-53.59a212.87,212.87,0,0,0-29.49-42.86,83.62,83.62,0,0,0,15.72-9.59c17.22,10.26,31.83,23.11,40.91,36.5A128.57,128.57,0,0,1,403.82,286.74Zm-30.16-43.63c-12.6-14.09-24.42-23.49-31.42-27.84l-.18-.36a165.8,165.8,0,0,1,47.11,18.85A83.31,83.31,0,0,1,373.66,243.11ZM348.45,229.7c3.43,6.65,6.65,12.89,9.67,19.52A134.63,134.63,0,0,1,343.65,253q-3.72.74-7.26,1.23c1.25-18.74,3.64-31.21,5.25-37.89C344,221.07,346.26,225.46,348.45,229.7Zm-13.07,24.63a82.72,82.72,0,0,1-19.82.43c7.44-14.3,16.24-26.42,22.43-34.92,1-1.32,1.84-2.54,2.66-3.69C339,222.91,336.62,235.48,335.38,254.33Zm-12.56,1.86a100.43,100.43,0,0,0,12.49-.85,429,429,0,0,0-.3,45.2,115.24,115.24,0,0,1-33.11-4.44c1.73-14.43,6.91-28.16,13.14-40.34A67.24,67.24,0,0,0,322.82,256.19Zm12.05,45.38h.18c.33,7.5.84,15.47,1.58,23.95,1,11.55,2.72,26.83,4.85,44.07a291.33,291.33,0,0,1-31.4.64c-2.11-.08-4.14-.19-6.13-.32-1.9-28.39-2.94-51.81-2.66-65.41,0-2.45.22-4.89.48-7.31C309.86,299.62,320.74,301.57,334.87,301.57ZM319.51,371.4c6.93,0,14.33-.28,22.1-.83,2.29,18.45,5,39.1,7.91,59.85A242.41,242.41,0,0,1,313,429.1c-1.56-.18-3.07-.38-4.56-.59-1.73-20.33-3.26-39.92-4.45-57.62C308.87,371.22,314,371.4,319.51,371.4Zm20.62,60.22c3.08,0,6.27-.07,9.54-.18,2.83,20.46,5.77,41,8.47,59.5a255,255,0,0,1-44.32-4.18c-1.87-19.09-3.66-38.47-5.26-57.24A225.23,225.23,0,0,0,340.13,431.62Zm10.54-.21a343.55,343.55,0,0,0,44.46-4.74c3.44,21,6.89,42.15,10,61.72a370.13,370.13,0,0,1-46,2.56C356.45,472.41,353.51,451.88,350.67,431.41Zm45.44-4.92c12.54-2.16,26-5.1,40.32-8.94,4.25,21.87,8.58,44.05,12.41,63.69-15.18,3.17-29.41,5.47-42.7,7C403,468.69,399.56,447.49,396.11,426.49Zm41.29-9.2q4.25-1.16,8.59-2.41c.53,2.66,1.15,5.41,1.9,8.27,4.4,16.92,9.76,36.61,14.87,55q-6.58,1.55-12.94,2.88C446,461.37,441.66,439.18,437.4,417.29Zm8.4-3.38c-2.9.83-5.77,1.64-8.59,2.4-4.14-21.3-8.2-42.26-11.66-60.24A136.07,136.07,0,0,0,456,341.78c1.45,6.17,2.49,11.07,3.06,13.87C447.45,367.15,440.16,384.42,445.8,413.91Zm11.12-72.71a115.57,115.57,0,0,0,26.23-23.28q3,9.87,5.8,20.85a41.44,41.44,0,0,0-12.63,4.44,80.15,80.15,0,0,0-16.38,11.62C459.33,351.89,458.31,347.11,456.92,341.2Zm-.24-1.05c-4-16.78-10.78-42-19.4-60.38a68.53,68.53,0,0,0-5-8.75c3.16-2.48,6-4.94,8.44-7.31a104.68,104.68,0,0,0,11-12.13,26.28,26.28,0,0,1,4,4.39c9.87,14,18.91,34.44,27,60.79A114.3,114.3,0,0,1,456.68,340.15ZM440.06,263c-2.44,2.33-5.2,4.75-8.31,7.19-9.11-13.41-23.7-26.26-40.88-36.55A46.93,46.93,0,0,0,398,226.5c22.43,6.84,42.76,15.67,53,24.4A102.41,102.41,0,0,1,440.06,263ZM390,233.1a169.28,169.28,0,0,0-41-17.52,317.18,317.18,0,0,1,48,10.61A46.7,46.7,0,0,1,390,233.1Zm-50.3-17.32c-.78,1.09-1.61,2.23-2.51,3.47-6.26,8.6-15.18,20.87-22.68,35.38-6.48-.88-11.52-2.83-14.58-5.75A483.92,483.92,0,0,1,339.69,215.78Zm-40.51,33.8c3.35,3.3,8.62,5.18,14.81,6-6.18,12.14-11.31,25.8-13.06,40.17-14.77-4.68-23.6-12.07-26.32-18.8C280.72,268.46,288.88,259.35,299.18,249.58Zm-36.58,105c-1.09-19.59-1.82-34.89-1.88-41.8-.1-10.54,4.23-22.05,13.23-34.87,2.33,5,8.16,11.17,19,16a72,72,0,0,0,7.89,3c-.27,2.52-.46,5.05-.51,7.59-.28,13.6.76,37,2.66,65.36-22.88-1.69-37.1-7-40.32-15.25Zm.14,2.38c4.88,7.64,19.45,12.31,40.28,13.85,1.19,17.67,2.7,37.24,4.43,57.55-21.59-3.16-35.06-9-41.24-13.67C264.92,394.14,263.7,374,262.74,357Zm7.06,113.68c-1.14-17.31-2.35-36.19-3.52-54.74,6.77,4.75,20.47,10.41,41.26,13.47,1.6,18.75,3.38,38.11,5.26,57.19C292.31,482.56,278.05,476.39,269.8,470.65Zm4,60.29c-.85-12.45-2.3-34.05-3.93-59,8.42,5.62,22.85,11.76,43,15.75,2.17,22,4.45,43.59,6.72,63.39C297.69,545.72,281.86,537.82,273.81,530.94Zm46.85,20.35c-2.27-19.81-4.56-41.42-6.73-63.45,4.15.8,8.52,1.51,13.14,2.1a272.78,272.78,0,0,0,31.23,2.13c4.33,29.69,8,54.18,9.68,65.06A227.74,227.74,0,0,1,320.66,551.29ZM369,557.15c-1.64-10.76-5.34-35.29-9.69-65.07l3.08,0a370.29,370.29,0,0,0,42.93-2.64c4.12,25.84,7.67,48.76,9.88,64.51A272.82,272.82,0,0,1,369,557.15ZM440.4,549c-8.28,2-16.36,3.59-24.21,4.82-2.21-15.75-5.75-38.65-9.88-64.47q20.58-2.46,42.73-7.12c5.82,29.8,10.47,53.57,12,61.22C454.57,545.38,447.72,547.23,440.4,549ZM462,543.16c-1.52-7.76-6.16-31.47-12-61.14q6.44-1.36,13-2.91c7.23,26.05,13.88,49.33,16.43,58.19Q471.28,540.33,462,543.16Zm106.08-70.79c-1.2-4.37-2.44-8.89-3.7-13.53-2.52-9.21-5.15-18.85-7.87-28.73,8.46-2.05,16.28-4,23.67-6,6.19,22.13,11.11,39.69,12.88,46A232.5,232.5,0,0,1,568.05,472.37Zm11.68-49.07-21.05,5.25-2.47.59c-5.81-21.09-12-43.28-18.33-64.81q12.63-2.46,23.94-5.69C567.7,379.65,574.41,404.29,579.73,423.3Zm-17-64.94A196.67,196.67,0,0,0,592.9,347c7,20,15.43,45.25,21.38,64.62l-33.61,11.3C575.35,404,568.65,379.33,562.78,358.36ZM594,470l-12.91-46.12a265.52,265.52,0,0,0,33.18-11.18c5.84,19.2,10.67,36.14,13.67,47.55A130.09,130.09,0,0,1,594,470Zm61.78-42.51c1.81,5.29,3.3,9.66,4.35,12.59-10.46,8.13-20.28,14.7-31.27,19.75-3-11.43-7.83-28.36-13.66-47.51A197.08,197.08,0,0,0,645,396.39C649.22,408.18,653,419.15,655.8,427.45Zm-34.43-89c7.78,15.49,16.18,37.29,23.26,57l-29.41,15.87c-6-19.39-14.37-44.65-21.41-64.69a128.41,128.41,0,0,0,23.77-14.78A71.91,71.91,0,0,1,621.37,338.44ZM617,331a128.49,128.49,0,0,1-23.56,14.68c-5-14.21-10.08-27.74-14.94-39.45C591,307.49,606,314.31,617,331Zm-52.2-23.86a37.21,37.21,0,0,1,12.57-1c4.93,11.83,10.08,25.56,15.16,40a195.89,195.89,0,0,1-30.06,11.32c-4.1-14.64-8.06-28.77-11.5-41l-1,.27c3.44,12.26,7.4,26.4,11.5,41.05q-11.29,3.24-23.95,5.68L536,357.79C536.13,328.18,550.56,311,564.84,307.11Zm-5.32,153q1,3.69,2,7.26c-10.53,23.74-28,48.69-77.37,68.1-2.62-9.13-9.15-32-16.25-57.57l.45-.1-.24-1-.48.12c-5.11-18.41-10.49-38.14-14.89-55.09-12-45.95,5.44-62.87,26-74.31,15-8.32,39.18-6.15,52.45,11.75C541.21,393.13,551,429.1,559.52,460.15ZM528,348.71c-11-9.26-25.5-12.17-38.09-10.11q-2.91-11.39-6-21.61a125.49,125.49,0,0,0,20.81-38.14C512.14,298,520.1,322.44,528,348.71ZM492.86,252.3a224.53,224.53,0,0,1,11.3,25.11,125.36,125.36,0,0,1-20.61,38.41c-8.05-26.14-17.07-46.41-26.92-60.42a28.11,28.11,0,0,0-4.22-4.64c6.39-8.68,8.53-16.08,6.5-22.36C474.42,233.8,486.91,241.44,492.86,252.3ZM457.7,228c2.27,6,.22,13.43-6.08,22.09-10.43-8.91-30.61-17.72-52.91-24.51a28.44,28.44,0,0,0,4.21-8.06C421.72,219.33,441.31,222.45,457.7,228Zm-60-2.73A318.82,318.82,0,0,0,349,214.57l4.09.13c12.93.4,30.45,1,48.81,2.7A27.55,27.55,0,0,1,397.71,225.25Z" transform="translate(524.15 20.16)"/></svg>