<?xml version="1.0" encoding="UTF-8" standalone="no"?><!DOCTYPE svg PUBLIC "-//W3C//DTD SVG 1.1//EN" "http://www.w3.org/Graphics/SVG/1.1/DTD/svg11.dtd"><svg width="100%" height="100%" viewBox="0 0 90 91" version="1.1" xmlns="http://www.w3.org/2000/svg" xmlns:xlink="http://www.w3.org/1999/xlink" xml:space="preserve" xmlns:serif="http://www.serif.com/" style="fill-rule:evenodd;clip-rule:evenodd;stroke-linejoin:round;stroke-miterlimit:2;"><path d="M0.211,28.937c11.901,1.461 13.14,13.154 14.635,22.367c2.103,12.961 7.4,34.03 41.327,38.973c-10.505,-6.377 -13.179,-14.424 -1.719,-20.649c11.46,-6.225 30.368,-12.906 33.233,-38.11c-15.722,14.227 -56.558,20.998 -63.219,32.492c2.763,-10.659 21.582,-18.033 38.4,-25.382c12.174,-5.32 28.6,-11.807 26.117,-37.923c-11.712,16.818 -32.048,21.744 -47.03,27.969c-15.822,6.574 -19.87,10.24 -23.026,15.294c0.182,-5.769 5.207,-11.661 10.073,-14.583c-5.157,-4.403 -19.354,-7.248 -28.791,-0.448Z" style="fill:#fff;"/></svg>