<?xml version="1.0" encoding="UTF-8" standalone="no"?><!DOCTYPE svg PUBLIC "-//W3C//DTD SVG 1.1//EN" "http://www.w3.org/Graphics/SVG/1.1/DTD/svg11.dtd"><svg width="100%" height="100%" viewBox="0 0 138 130" version="1.1" xmlns="http://www.w3.org/2000/svg" xmlns:xlink="http://www.w3.org/1999/xlink" xml:space="preserve" xmlns:serif="http://www.serif.com/" style="fill-rule:evenodd;clip-rule:evenodd;stroke-linejoin:round;stroke-miterlimit:2;"><g><path d="M24.211,28.937c11.901,1.461 13.14,13.154 14.635,22.367c2.103,12.961 7.4,34.03 41.327,38.973c-10.505,-6.377 -13.179,-14.424 -1.719,-20.649c11.46,-6.225 30.368,-12.906 33.233,-38.11c-15.722,14.227 -56.558,20.998 -63.219,32.492c2.763,-10.659 21.582,-18.033 38.4,-25.382c12.174,-5.32 28.6,-11.807 26.117,-37.923c-11.712,16.818 -32.048,21.744 -47.03,27.969c-15.822,6.574 -19.869,10.24 -23.026,15.294c0.182,-5.769 5.207,-11.661 10.073,-14.583c-5.157,-4.403 -19.354,-7.248 -28.791,-0.448Z" style="fill:#466179;"/><g><path d="M10.027,128.064c0.951,0 1.516,-0.057 1.697,-0.17c0.181,-0.113 0.249,-0.441 0.204,-0.985l-8.283,0l0,2.513l-1.29,0c0.045,-0.725 0.068,-1.653 0.068,-2.784l0,-2.648c0,-0.996 -0.023,-1.901 -0.068,-2.716l10.931,0c-0.091,0.86 -0.136,1.788 -0.136,2.784l0,3.87c0,0.543 -0.181,0.905 -0.543,1.086c-0.362,0.181 -0.973,0.34 -1.833,0.475c-0.091,-0.452 -0.34,-0.927 -0.747,-1.425Zm-1.63,-14.395c-0.045,0.453 -0.067,0.928 -0.067,1.426l3.734,0c0.815,0 1.561,-0.022 2.24,-0.068l0,1.223c-0.679,-0.046 -1.403,-0.068 -2.172,-0.068l-3.802,0l0,1.018l3.259,0c0.588,0 1.222,-0.023 1.901,-0.068l0,1.222c-0.679,-0.045 -1.313,-0.068 -1.901,-0.068l-3.259,0l0,0.951l4.549,0c0.86,0 1.652,-0.023 2.376,-0.068l0,1.222c-0.679,-0.045 -1.471,-0.068 -2.376,-0.068l-10.592,0c-0.725,0 -1.449,0.023 -2.173,0.068l0,-1.222c0.77,0.045 1.494,0.068 2.173,0.068l4.685,0l0,-0.951l-3.124,0c-0.724,0 -1.403,0.023 -2.037,0.068l0,-1.222c0.634,0.045 1.313,0.068 2.037,0.068l3.124,0l0,-1.018l-3.871,0c-0.769,0 -1.471,0.022 -2.104,0.068l0,-1.223c0.724,0.046 1.426,0.068 2.104,0.068l3.871,0c0,-0.543 -0.023,-1.018 -0.068,-1.426l1.493,0Zm3.531,9.913l0,-1.222l-8.283,0l0,1.222l8.283,0Zm0,2.241l0,-1.154l-8.283,0l0,1.154l8.283,0Z" style="fill:#466179;fill-rule:nonzero;"/><path d="M23.81,113.466c0.453,0.181 1.041,0.339 1.765,0.475c-0.452,0.498 -0.769,1.019 -0.95,1.562l6.178,0c-0.09,0.362 -0.181,1.041 -0.271,2.037l-0.272,2.376c-0.045,0.679 -0.305,1.064 -0.781,1.154c-0.475,0.091 -1.075,0.181 -1.799,0.272c-0.09,-0.543 -0.271,-1.041 -0.543,-1.494c0.769,0.045 1.267,0.057 1.494,0.034c0.226,-0.023 0.362,-0.124 0.407,-0.306l0.272,-3.055l-8.012,0l0,5.975l11.339,0c-0.091,0.543 -0.159,1.267 -0.204,2.173l-0.136,3.462c-0.136,0.589 -0.498,0.951 -1.086,1.087c-0.589,0.136 -1.358,0.249 -2.309,0.339c-0.136,-0.543 -0.339,-1.063 -0.611,-1.561c0.951,0.09 1.596,0.113 1.935,0.068c0.34,-0.046 0.6,-0.204 0.781,-0.476l0.204,-4.073l-11.271,0c0.045,-0.996 0.068,-1.902 0.068,-2.716l0,-2.58c0,-0.86 -0.023,-1.766 -0.068,-2.716l3.327,0c0.226,-0.543 0.407,-1.222 0.543,-2.037Zm-6.654,11.882c0.543,0.045 1.268,0.068 2.173,0.068l7.265,0c1.086,0 1.833,-0.023 2.24,-0.068l0,1.154c-0.407,-0.045 -1.154,-0.068 -2.24,-0.068l-7.265,0c-0.86,0 -1.584,0.023 -2.173,0.068l0,-1.154Zm7.129,-7.944c0.77,0.86 1.381,1.675 1.834,2.444c-0.498,0.317 -0.883,0.589 -1.155,0.815c-0.543,-0.951 -1.131,-1.788 -1.765,-2.512c0.362,-0.227 0.724,-0.476 1.086,-0.747Z" style="fill:#466179;fill-rule:nonzero;"/><path d="M37.593,124.261c1.358,-0.95 2.365,-1.923 3.021,-2.919c0.657,-0.996 1.008,-2.241 1.053,-3.735l-4.617,0l0,11.543l-1.562,0c0.091,-0.905 0.136,-1.675 0.136,-2.309l0,-7.536c0,-0.905 -0.023,-1.856 -0.068,-2.852l6.179,0c0,-1.222 -0.023,-2.127 -0.068,-2.716c0.724,0.046 1.29,0.068 1.697,0.068c-0.226,0.589 -0.339,1.471 -0.339,2.648l6.382,0c-0.09,0.951 -0.136,1.901 -0.136,2.852l0,8.283c0,0.679 -0.271,1.098 -0.814,1.256c-0.544,0.159 -1.29,0.306 -2.241,0.442c-0.136,-0.453 -0.453,-0.951 -0.951,-1.494c1.087,0 1.788,-0.034 2.105,-0.102c0.317,-0.068 0.475,-0.283 0.475,-0.645l0,-9.438l-4.888,0c0,0.815 -0.068,1.607 -0.204,2.377c0.408,0.317 1.132,0.871 2.173,1.663c1.041,0.792 1.788,1.415 2.241,1.868c-0.498,0.407 -0.883,0.769 -1.155,1.086c-0.769,-0.905 -1.991,-2.037 -3.666,-3.395c-0.815,1.403 -1.879,2.716 -3.191,3.938c-0.543,-0.453 -1.064,-0.747 -1.562,-0.883Z" style="fill:#466179;fill-rule:nonzero;"/><path d="M60.203,120.391c1.222,1.041 2.433,1.833 3.632,2.377c1.2,0.543 2.478,0.928 3.836,1.154c-0.407,0.317 -0.679,0.747 -0.814,1.29c-0.86,-0.226 -1.72,-0.521 -2.58,-0.883c0,2.671 0.022,4.346 0.067,5.025l-1.29,0l0,-0.951l-6.382,0l0,1.154l-1.29,0c0.045,-0.588 0.068,-2.331 0.068,-5.228c-0.86,0.408 -1.811,0.815 -2.852,1.222c-0.181,-0.362 -0.475,-0.746 -0.882,-1.154c1.991,-0.452 3.723,-1.256 5.194,-2.41c1.471,-1.154 2.365,-2.184 2.682,-3.089c0.452,0.271 0.882,0.497 1.29,0.678l-0.679,0.815Zm6.518,-4.413c-0.045,0.407 -0.068,0.837 -0.068,1.29c0,0.453 0.023,0.883 0.068,1.29l-1.358,0l0,-1.629l-10.999,0l0,1.697l-1.358,0c0.045,-0.498 0.068,-0.951 0.068,-1.358c0,-0.453 -0.023,-0.883 -0.068,-1.29l13.715,0Zm-3.667,11.407l0,-2.377l-6.382,0l0,2.377l6.382,0Zm0.611,-3.395c-1.357,-0.543 -2.738,-1.471 -4.141,-2.784c-1.041,1.041 -2.263,1.969 -3.667,2.784l7.808,0Zm-1.697,-6.315c2.127,1.177 3.531,1.969 4.21,2.377c-0.317,0.362 -0.589,0.724 -0.815,1.086c-1.539,-1.041 -2.92,-1.878 -4.142,-2.512c0.362,-0.362 0.611,-0.679 0.747,-0.951Zm-8.759,2.58c1.992,-0.814 3.395,-1.652 4.21,-2.512c0.136,0.227 0.43,0.566 0.883,1.019c-1.675,1.131 -3.078,1.946 -4.21,2.444c-0.226,-0.362 -0.521,-0.679 -0.883,-0.951Zm5.093,-6.11c0.362,-0.181 0.792,-0.43 1.29,-0.747c0.498,0.634 0.905,1.267 1.222,1.901c-0.634,0.226 -1.087,0.43 -1.358,0.611c-0.045,-0.181 -0.43,-0.769 -1.154,-1.765Z" style="fill:#466179;fill-rule:nonzero;"/><path d="M81.998,120.867c-0.046,0.724 -0.068,1.267 -0.068,1.629c0,0.317 0.022,0.815 0.068,1.494l-8.352,0l0,1.154l9.031,0c-0.046,0.996 -0.068,1.743 -0.068,2.241c0,0.452 0.022,1.086 0.068,1.901l-1.358,0l0,-0.679l-7.673,0l0,0.882l-1.426,0c0.046,-1.176 0.068,-1.878 0.068,-2.104l0,-4.278c0,-0.769 -0.022,-1.516 -0.068,-2.24l9.778,0Zm-4.821,-4.074c0.543,1.041 0.86,1.675 0.95,1.901l6.654,0c-0.045,0.634 -0.068,1.109 -0.068,1.426c0,0.271 0.023,0.679 0.068,1.222l-1.493,0l0,-1.562l-12.29,0l0,1.63l-1.493,0c0.045,-0.408 0.067,-0.815 0.067,-1.222c0,-0.408 -0.022,-0.906 -0.067,-1.494l7.061,0c-0.136,-0.362 -0.362,-0.815 -0.679,-1.358c0.453,-0.091 0.883,-0.272 1.29,-0.543Zm0.136,-0.611c-0.725,-0.046 -1.562,-0.068 -2.512,-0.068l0.679,1.358c-0.544,0.135 -1.019,0.294 -1.426,0.475c-0.136,-0.634 -0.317,-1.245 -0.543,-1.833l-0.883,0c-0.408,0.498 -0.758,0.894 -1.053,1.188c-0.294,0.294 -0.645,0.6 -1.052,0.917c-0.272,-0.363 -0.679,-0.679 -1.222,-0.951c0.95,-0.634 1.675,-1.267 2.173,-1.901c0.498,-0.634 0.86,-1.29 1.086,-1.969c0.407,0.181 0.973,0.362 1.697,0.543c-0.316,0.317 -0.611,0.679 -0.882,1.086l2.24,0c0.543,0 1.109,-0.022 1.698,-0.067l0,1.222Zm4.549,1.833c-0.136,-0.634 -0.34,-1.268 -0.611,-1.901l-1.29,0c-0.408,0.633 -0.747,1.154 -1.019,1.561c-0.498,-0.271 -0.95,-0.52 -1.358,-0.746c0.543,-0.498 0.974,-1.03 1.29,-1.596c0.317,-0.566 0.566,-1.188 0.747,-1.867c0.498,0.181 1.064,0.339 1.698,0.475c-0.362,0.317 -0.634,0.679 -0.815,1.086l2.648,0c0.407,0 1.064,-0.022 1.969,-0.067l0,1.222c-0.679,-0.046 -1.539,-0.068 -2.58,-0.068l0.679,1.358l-1.358,0.543Zm-0.543,9.573l0,-1.358l-7.673,0l0,1.358l7.673,0Zm-0.679,-4.617l0,-1.086l-6.994,0l0,1.086l6.994,0Z" style="fill:#466179;fill-rule:nonzero;"/><path d="M101.688,114.62c-0.046,0.588 -0.068,1.879 -0.068,3.87c0,1.947 0.022,3.35 0.068,4.21l-3.735,0l0,2.037l2.037,0c0.815,0 1.449,-0.023 1.901,-0.068l0,1.222c-0.498,-0.045 -1.131,-0.068 -1.901,-0.068l-2.037,0l0,2.308l2.445,0c0.86,0 1.584,-0.022 2.172,-0.067l0,1.222c-0.588,-0.046 -1.29,-0.068 -2.104,-0.068l-6.586,0c-0.725,0 -1.358,0.022 -1.902,0.068l0,-1.222c0.589,0.045 1.223,0.067 1.902,0.067l2.783,0l0,-2.308l-2.24,0c-0.589,0 -1.109,0.023 -1.562,0.068l0,-1.222c0.453,0.045 0.973,0.068 1.562,0.068l2.24,0l0,-2.037l-3.666,0c0.045,-0.679 0.068,-2.06 0.068,-4.142c0,-2.082 -0.023,-3.395 -0.068,-3.938l8.691,0Zm-11.067,0.883c0.497,0 1.041,-0.023 1.629,-0.068l0,1.29c-0.634,-0.045 -1.177,-0.068 -1.629,-0.068l-0.612,0l0,3.666c0.634,0 1.268,-0.022 1.902,-0.068l0,1.291c-0.634,-0.046 -1.268,-0.068 -1.902,-0.068l0,4.345c0.86,-0.317 1.585,-0.611 2.173,-0.883c0.091,0.453 0.181,0.838 0.272,1.155c-0.86,0.271 -1.822,0.622 -2.886,1.052c-1.064,0.43 -1.89,0.826 -2.478,1.188c-0.181,-0.452 -0.385,-0.928 -0.611,-1.426c0.588,-0.09 1.358,-0.339 2.308,-0.747l0,-4.684c-0.814,0 -1.516,0.022 -2.105,0.068l0,-1.291c0.634,0.046 1.336,0.068 2.105,0.068l0,-3.666l-0.814,0c-0.408,0 -0.906,0.023 -1.494,0.068l0,-1.29c0.588,0.045 1.086,0.068 1.494,0.068l2.648,0Zm9.709,6.11l0,-2.444l-2.377,0l0,2.444l2.377,0Zm0,-3.462l0,-2.445l-2.377,0l0,2.445l2.377,0Zm-3.667,3.462l0,-2.444l-2.308,0l0,2.444l2.308,0Zm0,-3.462l0,-2.445l-2.308,0l0,2.445l2.308,0Z" style="fill:#466179;fill-rule:nonzero;"/><path d="M117.643,113.669c0.272,0.453 0.657,0.928 1.155,1.426c-1.358,0.046 -2.524,0.125 -3.497,0.238c-0.973,0.113 -2.161,0.238 -3.565,0.373c0.227,0.227 0.544,0.43 0.951,0.611c-0.588,0.363 -1.166,0.781 -1.731,1.257c-0.566,0.475 -1.121,0.916 -1.664,1.324l3.395,0c1.132,-0.77 2.082,-1.472 2.852,-2.105c0.452,0.362 0.995,0.679 1.629,0.95c-0.634,0.272 -1.245,0.566 -1.833,0.883c-0.588,0.317 -1.55,0.894 -2.886,1.731c-1.335,0.838 -2.478,1.528 -3.428,2.071c2.67,-0.136 5.16,-0.249 7.468,-0.339c-0.226,-0.227 -0.815,-0.702 -1.765,-1.426c0.453,-0.181 0.837,-0.408 1.154,-0.679c0.543,0.407 1.166,0.916 1.867,1.528c0.702,0.611 1.37,1.21 2.003,1.799c-0.543,0.317 -0.973,0.611 -1.29,0.882c-0.362,-0.452 -0.701,-0.814 -1.018,-1.086c-1.222,0.045 -2.671,0.113 -4.346,0.204l0,4.074c0,0.86 -0.215,1.369 -0.645,1.527c-0.43,0.159 -1.21,0.328 -2.342,0.51c-0.091,-0.544 -0.294,-1.064 -0.611,-1.562c1.041,0 1.686,-0.034 1.935,-0.102c0.249,-0.068 0.373,-0.328 0.373,-0.781l0,-3.666c-2.761,0.045 -4.639,0.158 -5.635,0.339c-0.136,-0.452 -0.294,-0.928 -0.475,-1.426c0.995,-0.09 1.878,-0.316 2.648,-0.678c0.769,-0.363 1.697,-0.906 2.783,-1.63c-1.041,0 -1.822,0.023 -2.342,0.068c-0.521,0.045 -1.098,0.113 -1.731,0.204c-0.136,-0.498 -0.272,-0.974 -0.408,-1.426c0.77,0 1.539,-0.306 2.309,-0.917c0.769,-0.611 1.358,-1.279 1.765,-2.003c-2.535,0.091 -4.187,0.181 -4.956,0.272c-0.136,-0.453 -0.295,-0.86 -0.476,-1.222c2.535,0 4.798,-0.091 6.79,-0.272c1.992,-0.181 3.847,-0.498 5.567,-0.951Zm-1.833,10.728c0.543,0.408 1.177,0.872 1.901,1.392c0.725,0.521 1.336,1.03 1.834,1.528c-0.363,0.317 -0.725,0.679 -1.087,1.086c-0.588,-0.634 -1.199,-1.199 -1.833,-1.697c-0.634,-0.498 -1.222,-0.928 -1.765,-1.29c0.407,-0.317 0.724,-0.657 0.95,-1.019Zm-6.586,1.019c-0.543,0.271 -1.143,0.724 -1.799,1.358c-0.656,0.633 -1.324,1.244 -2.003,1.833c-0.407,-0.408 -0.792,-0.702 -1.154,-0.883c1.267,-0.769 2.444,-1.856 3.53,-3.259c0.408,0.317 0.883,0.634 1.426,0.951Z" style="fill:#466179;fill-rule:nonzero;"/><path d="M134.618,116.114c0.679,0 1.403,-0.023 2.172,-0.068l0,1.222c-0.724,-0.045 -1.425,-0.068 -2.104,-0.068l-3.803,0c0.362,0.272 0.792,0.543 1.29,0.815c-0.362,0.271 -0.735,0.668 -1.12,1.188c-0.385,0.521 -0.939,1.234 -1.663,2.139c1.041,0 2.67,-0.113 4.888,-0.34c-0.181,-0.226 -0.543,-0.656 -1.086,-1.29c0.407,-0.226 0.769,-0.475 1.086,-0.747c0.77,0.815 1.607,1.856 2.512,3.124c-0.452,0.271 -0.837,0.565 -1.154,0.882c-0.271,-0.362 -0.498,-0.679 -0.679,-0.95c-0.634,0.045 -1.041,0.09 -1.222,0.136l0,5.092c0,0.543 0.226,0.815 0.679,0.815l0.679,0c0.407,0 0.679,-0.611 0.815,-1.834c0.407,0.317 0.882,0.544 1.426,0.679c-0.408,1.539 -0.974,2.309 -1.698,2.309l-1.833,0c-0.905,0 -1.358,-0.475 -1.358,-1.426l0,-5.5c-0.634,0.046 -1.064,0.091 -1.29,0.136c0.045,1.675 -0.17,3.044 -0.645,4.108c-0.475,1.064 -1.392,2.116 -2.75,3.157c-0.226,-0.362 -0.634,-0.656 -1.222,-0.883c0.724,-0.452 1.335,-0.95 1.833,-1.493c0.498,-0.543 0.883,-1.155 1.154,-1.833c0.272,-0.679 0.385,-1.653 0.34,-2.92c-0.679,0.045 -1.29,0.136 -1.833,0.272c-0.136,-0.679 -0.317,-1.268 -0.544,-1.766c0.544,-0.045 1.143,-0.498 1.8,-1.358c0.656,-0.86 1.097,-1.697 1.324,-2.512l-1.087,0c-0.588,0 -1.312,0.023 -2.172,0.068l0,-1.222c0.724,0.045 1.426,0.068 2.105,0.068l5.16,0Zm-8.895,-1.426c-0.317,0.407 -0.656,0.928 -1.018,1.562c-0.362,0.633 -0.906,1.539 -1.63,2.715c0.86,-0.045 1.539,-0.067 2.037,-0.067c0.362,-0.634 0.656,-1.268 0.883,-1.902c0.498,0.317 1.018,0.589 1.561,0.815c-0.316,0.317 -0.746,0.894 -1.29,1.732c-0.543,0.837 -1.312,2.025 -2.308,3.564c1.313,-0.136 2.467,-0.294 3.463,-0.475c-0.227,0.543 -0.34,0.973 -0.34,1.29c-0.407,0.045 -1.12,0.136 -2.139,0.271c-1.018,0.136 -1.912,0.317 -2.682,0.544c-0.135,-0.453 -0.294,-0.906 -0.475,-1.358c0.498,-0.136 0.973,-0.543 1.426,-1.222c0.453,-0.679 0.905,-1.426 1.358,-2.241c-0.407,0.045 -0.883,0.102 -1.426,0.17c-0.543,0.068 -0.996,0.147 -1.358,0.237c-0.181,-0.452 -0.385,-0.882 -0.611,-1.29c0.543,-0.135 1.143,-0.86 1.799,-2.172c0.657,-1.313 1.03,-2.264 1.121,-2.852c0.543,0.272 1.086,0.498 1.629,0.679Zm1.833,10.863c-0.045,0.453 -0.045,0.883 0,1.29c-1.041,0.272 -2.07,0.555 -3.089,0.849c-1.018,0.294 -1.799,0.555 -2.342,0.781c-0.181,-0.453 -0.43,-0.928 -0.747,-1.426c1.131,-0.181 2.195,-0.385 3.191,-0.611c0.996,-0.226 1.992,-0.52 2.987,-0.883Zm4.21,-12.085c0.498,0.815 0.86,1.448 1.086,1.901c-0.317,0.136 -0.747,0.339 -1.29,0.611c-0.362,-0.86 -0.701,-1.516 -1.018,-1.969c0.543,-0.181 0.95,-0.362 1.222,-0.543Z" style="fill:#466179;fill-rule:nonzero;"/></g></g></svg>