<?xml version="1.0" encoding="UTF-8" standalone="no"?><!DOCTYPE svg PUBLIC "-//W3C//DTD SVG 1.1//EN" "http://www.w3.org/Graphics/SVG/1.1/DTD/svg11.dtd"><svg width="100%" height="100%" viewBox="0 0 309 124" version="1.1" xmlns="http://www.w3.org/2000/svg" xmlns:xlink="http://www.w3.org/1999/xlink" xml:space="preserve" xmlns:serif="http://www.serif.com/" style="fill-rule:evenodd;clip-rule:evenodd;stroke-linejoin:round;stroke-miterlimit:2;"><g><path d="M45.273,32.023c1.626,-11.636 2.69,-24.183 -1.153,-31.208c9.02,5.412 13.217,16.26 9.214,22.261c-1.242,1.863 -2.35,4.558 -3.299,7.55c9.447,-2.369 19.503,-2.513 35.977,-3.753c-13.204,4.401 -26.847,9.022 -38.182,12.386c-0.825,4.006 -1.344,7.683 -1.506,9.863c7.417,0.802 11.225,2.606 11.426,5.212c0.2,2.605 -5.212,6.614 -9.02,11.225c8.218,-3.809 14.833,-6.014 17.639,-3.608c2.806,2.405 -6.214,4.61 -6.214,4.61c0,0 -0.413,-3.207 -6.821,2.606c-6.408,5.812 -8.613,10.222 -8.212,15.434c1.603,-0.802 2.405,-3.408 3.608,-5.412c1.202,-2.005 6.214,-3.678 7.216,-3.543c1.002,0.135 2.405,-4.074 3.608,-5.277c0.401,2.005 -0.802,3.338 -0.602,5.277c0.201,1.939 2.807,1.939 1.604,11.761c-1.203,9.822 -1.403,17.639 -1.002,21.648c0.401,4.009 -2.618,4.41 -6.22,-2.205c-3.602,-6.615 -1.81,-20.646 0,-25.657c-1.598,-2.004 -6.007,3.207 -6.809,9.421c-0.802,6.214 -1.002,25.657 -1.002,29.866c0,4.21 -3.608,4.61 -6.214,-4.61c-2.606,-9.22 -2.682,-33.551 9.663,-45.628c-15.297,8.186 -28.314,17.043 -34.218,23.35c-5.905,6.307 -9.528,5.501 -14.091,5.501c5.368,-2.952 16.238,-11.137 22.679,-16.237c6.441,-5.099 15.7,-13.419 15.7,-13.419c-7.246,-6.575 -11.809,-13.016 -14.627,-13.285c-2.818,-0.268 -1.073,-4.562 2.416,-6.173c3.489,-1.61 12.043,-1.976 16.086,-1.659c0.282,-2.396 0.681,-5.089 1.117,-7.958c-6.644,1.885 -12.29,3.227 -16.296,3.68c-4.433,0.502 -6.616,-2.75 -9.676,-3.94c4.653,-0.194 16.806,-4.7 27.211,-8.079Zm-4.218,32.852c-0.671,-3.087 0.134,-8.723 0.671,-10.467c0.537,-1.745 -8.186,-0.135 -9.528,0.134c-1.342,0.268 -3.489,3.22 -0.805,5.77c2.684,2.55 8.052,6.441 8.991,7.246c0.939,0.806 0.805,-0.536 0.671,-2.683Zm6.441,-9.528c0.986,-1.775 3.489,0.671 2.818,2.147c-0.671,1.476 -2.818,3.892 -3.623,5.234c-0.671,-3.489 0.134,-6.173 0.805,-7.381Z" style="fill:#466179;"/><path d="M308.006,24.835l0,78l-153.5,0l0,-78l153.5,0Zm-13.226,52.758c0,2.4 -0.804,4.764 -2.412,7.092c-1.608,2.328 -3.864,4.224 -6.768,5.688c-2.904,1.464 -6.204,2.196 -9.9,2.196c-3.12,0 -5.592,-0.252 -7.416,-0.756c-1.824,-0.504 -2.736,-1.212 -2.736,-2.124c0,-0.48 0.348,-1.284 1.044,-2.412c0.696,-1.128 1.236,-1.692 1.62,-1.692c0.576,0 0.864,0.12 0.864,0.36c0,0.144 -0.084,0.312 -0.252,0.504c-0.168,0.192 -0.252,0.384 -0.252,0.576c0,0.144 0.3,0.36 0.9,0.648c0.6,0.288 1.524,0.552 2.772,0.792c1.248,0.24 2.76,0.36 4.536,0.36c2.832,0 5.316,-0.552 7.452,-1.656c2.136,-1.104 3.78,-2.496 4.932,-4.176c1.152,-1.68 1.728,-3.312 1.728,-4.896c0,-2.064 -0.996,-3.84 -2.988,-5.328c-1.992,-1.488 -5.196,-2.904 -9.612,-4.248c-4.272,-1.392 -7.572,-2.556 -9.9,-3.492c-2.328,-0.936 -4.212,-2.088 -5.652,-3.456c-1.44,-1.368 -2.16,-3.036 -2.16,-5.004c0,-2.64 1.488,-5.244 4.464,-7.812c2.976,-2.568 6.648,-4.656 11.016,-6.264c4.368,-1.608 8.424,-2.412 12.168,-2.412c1.92,0 2.952,0.384 3.096,1.152c0.144,0.768 0.216,1.632 0.216,2.592c0,0.72 -0.264,1.08 -0.792,1.08c-0.24,0 -0.516,-0.084 -0.828,-0.252c-0.312,-0.168 -0.588,-0.3 -0.828,-0.396c-0.288,-0.096 -0.624,-0.192 -1.008,-0.288c-0.384,-0.096 -0.936,-0.144 -1.656,-0.144c-2.496,0 -5.496,0.648 -9,1.944c-3.504,1.296 -6.54,2.904 -9.108,4.824c-2.568,1.92 -3.852,3.768 -3.852,5.544c0,1.44 0.588,2.688 1.764,3.744c1.176,1.056 2.748,1.956 4.716,2.7c1.968,0.744 4.752,1.668 8.352,2.772c5.28,1.536 9.18,3.264 11.7,5.184c2.52,1.92 3.78,4.272 3.78,7.056Zm-93.024,-0.288c0,0.48 -0.432,1.344 -1.296,2.592c-2.016,2.736 -4.728,5.388 -8.136,7.956c-3.408,2.568 -7.152,3.852 -11.232,3.852c-4.32,0 -7.848,-1.236 -10.584,-3.708c-2.736,-2.472 -4.104,-6.132 -4.104,-10.98c0,-3.312 0.576,-7.056 1.728,-11.232c1.152,-4.176 2.496,-7.8 4.032,-10.872c1.584,-3.12 3.42,-5.712 5.508,-7.776c2.088,-2.064 4.188,-3.096 6.3,-3.096c2.064,0 3.66,0.744 4.788,2.232c1.128,1.488 1.692,3.336 1.692,5.544c0,0.816 -0.156,1.644 -0.468,2.484c-0.312,0.84 -0.66,1.548 -1.044,2.124c-0.384,0.576 -0.672,0.864 -0.864,0.864c-0.384,0 -0.576,-0.216 -0.576,-0.648c0,-0.144 0.084,-0.468 0.252,-0.972c0.168,-0.504 0.252,-0.924 0.252,-1.26c0,-1.2 -0.144,-2.328 -0.432,-3.384c-0.24,-0.912 -0.72,-1.668 -1.44,-2.268c-0.72,-0.6 -1.512,-0.9 -2.376,-0.9c-3.456,0 -6.696,3.336 -9.72,10.008c-1.2,2.688 -2.208,5.712 -3.024,9.072c-0.816,3.36 -1.224,6.6 -1.224,9.72c0,2.16 0.444,4.128 1.332,5.904c0.888,1.776 2.16,3.192 3.816,4.248c1.656,1.056 3.588,1.584 5.796,1.584c3.504,0 6.684,-0.84 9.54,-2.52c2.856,-1.68 5.676,-3.84 8.46,-6.48c0.096,-0.096 0.432,-0.636 1.008,-1.62c0.576,-0.984 1.008,-1.476 1.296,-1.476c0.288,0 0.48,0.072 0.576,0.216c0.096,0.144 0.144,0.408 0.144,0.792Zm53.928,9.072c0,0.336 -0.276,0.708 -0.828,1.116c-0.552,0.408 -1.164,0.612 -1.836,0.612c-0.576,0 -1.032,-0.036 -1.368,-0.108c-0.336,-0.072 -0.576,-0.276 -0.72,-0.612c-0.432,-0.72 -0.936,-2.856 -1.512,-6.408c-0.576,-3.552 -1.128,-7.632 -1.656,-12.24c-1.152,-14.064 -2.04,-21.24 -2.664,-21.528c-0.528,1.152 -1.344,3.324 -2.448,6.516c-1.104,3.192 -2.376,7.356 -3.816,12.492c-1.584,5.52 -2.784,9.324 -3.6,11.412c-0.816,2.088 -1.536,3.372 -2.16,3.852c-0.384,0.336 -0.852,0.66 -1.404,0.972c-0.552,0.312 -1.02,0.468 -1.404,0.468c-0.48,0 -0.792,-0.06 -0.936,-0.18c-0.144,-0.12 -0.312,-0.492 -0.504,-1.116c-0.192,-0.72 -0.648,-2.964 -1.368,-6.732c-0.72,-3.768 -1.272,-7.164 -1.656,-10.188l-0.432,-3.024c-0.816,-6.24 -1.368,-9.72 -1.656,-10.44c-0.912,0.816 -1.776,2.628 -2.592,5.436c-0.816,2.808 -1.752,6.78 -2.808,11.916c-1.008,3.984 -2.232,10.464 -3.672,19.44c-0.048,0.528 -0.408,1.008 -1.08,1.44c-0.672,0.432 -1.272,0.648 -1.8,0.648c-0.768,0 -1.2,-0.744 -1.296,-2.232c-0.048,-1.488 -0.372,-4.704 -0.972,-9.648c-0.6,-4.944 -1.14,-9.288 -1.62,-13.032c-0.672,-5.328 -1.584,-10.272 -2.736,-14.832c-0.336,-1.44 -0.504,-2.256 -0.504,-2.448c0,-0.72 0.348,-1.308 1.044,-1.764c0.696,-0.456 1.452,-0.684 2.268,-0.684c0.384,0 0.792,1.488 1.224,4.464c0.432,2.976 0.888,6.72 1.368,11.232l0.216,2.376c0.192,1.584 0.408,3.24 0.648,4.968c0.912,7.344 1.416,11.952 1.512,13.824c0.96,-5.568 2.04,-11.16 3.24,-16.776l0.648,-3.168c1.056,-5.088 2.208,-8.94 3.456,-11.556c1.248,-2.616 2.856,-3.924 4.824,-3.924c0.624,0 1.32,1.62 2.088,4.86c0.768,3.24 1.368,7.02 1.8,11.34c0.336,3.072 0.768,6.072 1.296,9c0.528,2.928 1.008,4.968 1.44,6.12c0.288,-0.816 0.876,-2.616 1.764,-5.4c0.888,-2.784 1.716,-5.424 2.484,-7.92c2.352,-8.016 4.848,-15.192 7.488,-21.528c0.48,-1.008 0.948,-1.74 1.404,-2.196c0.456,-0.456 1.26,-0.684 2.412,-0.684c0.624,0 1.296,2.736 2.016,8.208c0.72,5.472 1.32,11.808 1.8,19.008c1.296,10.176 2.472,15.72 3.528,16.632c0.72,0.624 1.08,1.296 1.08,2.016Z" style="fill:#466179;"/><g><path d="M70.346,105.495c2.696,4.137 8.889,2.858 11.154,-1.177c2.266,-4.035 3.66,-5.548 7.495,-5.548c3.834,0 6.971,0.841 12.548,-2.186c5.578,-3.026 18.998,-10.423 21.96,-10.759c2.963,-0.336 1.569,-5.212 -2.788,-4.371c-4.357,0.84 -10.283,5.211 -17.08,8.574c-6.797,3.362 -9.76,5.38 -14.64,5.884c-4.88,0.504 -22.483,3.699 -18.649,9.583Z" style="fill:#466179;"/><path d="M116.881,19.754c-4.183,1.009 -10.283,4.539 -16.732,13.113c-6.449,8.574 -15.511,20.679 -20.043,23.537c6.623,-2.522 10.632,-7.397 13.42,-9.583c-2.788,7.397 -5.926,17.821 -7.32,29.757c-1.394,11.937 0.349,12.441 3.486,10.424c3.137,-2.018 29.803,-12.273 34.857,-12.105c5.054,0.168 5.926,1.513 4.88,7.734c-1.046,6.22 -5.403,15.803 -11.677,18.493c-6.274,2.69 -9.934,0.84 -16.732,2.521c-6.797,1.682 -5.402,2.186 0.523,1.514c5.926,-0.673 10.283,0.336 13.769,2.689c3.486,2.354 7.146,5.885 13.769,-8.406c6.622,-14.29 10.631,-32.278 5.925,-32.278c-4.705,0 -10.283,1.345 -26.84,7.733c8.192,-6.557 14.117,-10.928 18.126,-10.928c4.009,0 1.917,-5.211 -3.834,-3.362c-5.752,1.849 -21.786,9.919 -24.749,11.768c8.191,-6.388 13.943,-9.919 14.989,-11.096c1.045,-1.176 0,-1.849 -0.349,-3.53c-0.348,-1.681 2.266,-3.867 5.229,-6.052c2.963,-2.186 0.697,-2.69 -0.697,-3.195c-1.395,-0.504 -2.092,-0.504 -1.046,-3.362c1.046,-2.858 1.743,-5.548 0.348,-7.397c-1.394,-1.85 -7.145,2.69 -10.457,4.203c-3.311,1.513 -6.1,4.203 -8.017,4.875c-1.22,-2.69 1.046,-3.026 2.789,-4.875c1.742,-1.85 14.291,-13.954 16.557,-16.98c2.266,-3.026 3.311,-6.053 -0.174,-5.212Zm-24.401,54.134c-0.871,2.186 -2.091,8.406 0,7.566c2.092,-0.841 8.63,-3.445 10.895,-4.958c2.266,-1.513 5.08,-4.141 7.346,-5.991c2.265,-1.849 -11.771,4.471 -14.211,6.321c-2.44,1.849 -4.204,0.761 -4.03,-2.938Zm3.138,-15.299c0,2.186 1.742,2.354 4.008,0.673c1.195,-0.887 8.861,-7.535 8.415,-6.514c-0.401,0.915 -8.811,9.418 -9.635,10.213c-1.743,1.681 -4.706,5.884 -4.706,3.53c0,-2.354 1.569,-7.733 1.918,-7.902Zm11.2,0.007c-3.694,2.185 -6.834,6.673 -6.834,6.673c0,0 5.35,-3.71 6.353,-4.839c1.003,-1.129 4.441,-4.177 0.481,-1.834Zm-9.109,-4.041c0,-2.354 0.871,-4.876 4.531,-6.893c3.66,-2.018 7.146,-5.044 7.495,-3.195c0.348,1.85 0.174,3.195 -2.789,4.54c-2.963,1.345 -8.54,5.38 -9.237,5.548Z" style="fill:#466179;"/></g></g></svg>